<svg xmlns="http://www.w3.org/2000/svg" pointer-events="none" class="leaflet-zoom-animated" width="1454" height="841" viewBox="-145 -186 1454 841" style="transform: translate3d(-145px, -186px, 0px);">
	<g>
		<path class="leaflet-interactive" stroke="black" stroke-opacity="1" stroke-width="2" stroke-linecap="round" stroke-linejoin="round" fill="#fff" fill-opacity="0.2" fill-rule="evenodd" d="M601 360L602 366L607 371L607 374L613 382L618 385L623 381L624 376L634 371L637 367L645 365L644 358L642 355L644 351L648 349L647 344L650 341L649 340L653 334L654 329L650 329L648 333L645 332L651 326L661 320L659 309L655 301L657 300L662 302L662 306L670 317L669 319L671 319L672 326L675 329L682 322L690 323L699 319L700 317L706 319L719 313L724 315L724 317L727 320L728 327L729 329L731 329L742 323L742 321L735 316L739 308L731 308L739 304L739 301L749 295L753 297L751 302L753 315L764 314L765 319L768 319L770 310L779 302L778 301L780 297L782 295L790 293L790 295L793 296L794 291L799 292L797 293L797 296L806 296L807 301L810 305L818 304L828 308L829 306L827 305L831 298L825 298L830 289L835 287L838 287L839 289L847 293L848 299L851 300L860 293L862 294L872 289L875 292L878 291L883 288L887 282L894 279L901 282L908 280L913 281L915 275L918 274L919 272L917 268L918 261L921 259L926 259L932 253L941 253L942 251L939 250L938 243L948 227L948 222L950 221L954 224L959 224L962 220L967 221L975 218L975 211L971 209L969 210L964 205L962 205L962 199L959 194L960 191L959 189L954 188L956 186L954 183L956 181L956 175L953 174L954 173L952 171L953 169L951 168L951 166L952 162L957 157L954 153L952 153L952 147L950 146L948 140L949 138L947 135L946 136L943 130L945 128L942 125L939 125L938 121L936 120L936 116L941 109L940 107L937 107L935 109L931 108L923 111L921 109L919 112L915 114L913 113L911 103L907 103L904 99L905 98L901 94L901 92L905 91L904 89L902 89L903 87L898 89L898 92L893 95L889 95L889 92L887 92L887 90L884 87L881 90L873 90L869 84L865 85L864 83L857 81L857 88L855 88L851 84L849 85L844 100L846 104L849 106L845 108L847 108L848 112L853 118L847 118L841 121L838 120L837 114L831 112L828 113L826 110L826 106L823 104L824 103L822 103L818 98L813 95L809 97L809 101L801 99L799 102L794 103L792 104L793 105L787 108L785 108L781 104L778 107L774 107L770 110L770 108L768 108L766 112L767 114L764 118L762 114L760 115L753 113L751 114L752 118L749 122L745 116L743 118L741 117L738 121L733 119L726 125L721 125L722 123L718 116L712 117L711 113L707 110L700 110L700 106L708 105L711 101L713 101L716 98L715 97L721 87L720 83L723 77L725 77L728 74L731 75L736 67L743 67L752 61L751 58L748 58L746 55L748 55L749 52L753 51L752 47L748 42L742 42L739 36L737 36L734 33L730 37L725 36L723 41L719 43L713 41L711 46L711 44L705 45L703 43L699 43L692 47L690 46L688 49L686 46L687 44L690 43L688 42L687 37L689 36L683 34L685 31L681 29L679 31L674 31L675 33L668 41L663 41L662 38L660 40L658 38L655 41L651 41L647 44L647 41L643 38L634 38L631 34L627 34L626 30L622 30L621 23L619 25L614 23L610 27L609 25L607 25L607 28L604 30L605 33L602 33L602 35L599 36L596 40L592 39L587 42L587 44L584 43L584 41L580 41L582 50L585 51L590 49L597 54L591 58L594 66L594 69L592 71L595 80L592 83L585 82L582 85L576 86L574 85L574 81L570 79L568 67L563 63L563 61L549 61L544 59L543 56L540 60L536 55L531 57L530 59L526 59L525 56L521 56L518 62L519 64L516 69L517 72L513 78L515 81L518 82L518 88L516 91L515 90L511 92L504 102L502 101L497 106L498 110L496 112L503 121L501 127L508 136L507 143L501 149L498 149L495 151L495 153L491 152L491 164L497 176L494 180L490 180L490 183L486 183L485 186L487 191L485 194L475 191L475 193L472 191L470 193L468 202L472 203L468 207L468 211L462 210L456 212L456 218L454 223L451 226L451 228L448 227L446 234L447 237L444 241L446 243L443 247L445 248L447 253L446 257L448 258L445 260L446 265L447 267L451 267L451 270L449 271L445 279L446 280L443 287L439 289L438 292L435 295L433 295L433 297L430 300L417 300L417 302L420 304L417 309L410 309L408 310L408 312L402 312L401 315L396 315L393 318L393 316L391 315L389 318L390 322L388 323L389 326L385 327L383 325L383 327L385 329L385 336L388 337L392 345L388 345L386 343L383 348L379 350L382 354L378 358L375 356L375 354L371 353L367 358L365 358L360 352L358 352L358 354L355 356L352 353L351 354L350 357L354 360L354 363L352 363L352 369L354 372L353 375L356 377L354 379L357 382L356 383L350 383L347 380L346 383L344 384L333 384L333 382L331 382L328 386L319 384L319 386L315 387L315 398L313 399L314 401L311 407L303 407L303 409L301 408L300 405L298 407L297 412L300 418L301 426L312 428L309 435L298 436L299 448L290 458L291 464L289 480L296 498L297 507L303 509L304 519L310 521L311 523L311 526L310 528L308 528L308 531L312 534L313 537L312 545L314 547L319 543L323 542L327 542L331 546L336 546L340 543L350 543L355 539L359 539L362 537L367 528L370 527L371 523L363 501L356 501L358 496L356 488L351 485L345 486L340 484L337 481L336 476L340 465L342 469L347 461L353 459L354 457L356 458L359 452L362 452L365 449L377 449L390 435L405 434L417 426L437 423L438 424L436 427L435 426L435 430L444 425L447 421L463 421L467 419L470 420L473 418L474 413L481 410L487 413L485 416L490 416L497 411L498 412L505 409L505 407L498 405L498 401L508 395L518 392L520 393L520 398L523 399L524 402L529 402L540 399L542 392L548 393L551 397L561 396L575 380L578 380L584 388L588 388L593 385L598 377L596 366L601 361zM971 229L969 226L967 228L963 227L960 231L956 228L953 232L962 234L965 233L969 235L971 234L971 229zM573 415L577 413L575 411L577 406L576 401L581 398L582 395L574 395L573 399L568 400L567 404L574 405L569 410L571 410L571 413L573 413L572 414zM551 413L554 413L552 412L554 410L559 411L561 408L563 409L563 407L561 406L563 400L553 405L554 406L551 409L550 413zM744 316L745 317L743 316zM689 364L690 363L687 362L688 363zM706 371L714 367L712 366L706 369L705 371zM659 372L660 371L657 370L658 372zM370 462L373 462L378 450L368 452L367 450L360 452L360 454L367 457L369 462zM542 405L543 407L545 403L543 404zM368 463L362 464L358 461L351 463L348 462L346 467L340 472L339 476L349 474L354 471L362 471L366 475L366 477L369 478L371 466L371 464L369 463zM669 372L669 373zM685 387L687 385L685 386zM519 417L521 417L519 416zM668 357L667 355L666 356zM684 368L685 368zM742 328L744 328L742 326L741 327zM663 376L665 373L661 374L663 376zM688 384L690 382L688 383zM659 380L662 378L659 377L660 379zM677 369L679 369L678 368zM607 389L608 387L612 386L606 385L606 388zM428 434L428 433zM673 361L674 361zM668 333L667 331L665 332L667 333zM669 361L669 357L668 361zM702 374L705 373L704 371L701 371L701 374zM609 377L609 377zM699 375L700 372L696 374L698 374zM606 380L605 383L608 380L606 380zM564 402L565 400L564 401zM740 306L741 307zM654 369L655 370L655 368zM937 492L936 495L946 496L948 501L944 506L935 508L939 511L942 511L947 509L952 502L949 493L941 492zM656 378L658 378L657 376L656 377zM761 322L762 322zM515 411L516 410zM583 412L585 411L583 410L581 412zM596 387L598 387L598 385L596 384L594 385L595 387zM513 408L513 407zM562 412L562 411zM744 306L744 307zM676 361L674 361zM751 316L750 315zM658 358L659 358zM743 330L744 329zM556 413L557 412L555 412zM357 502L360 501L359 498L357 500zM785 296L785 295zM685 370L686 369zM934 500L932 499zM657 362L658 363zM564 411L563 410zM379 477L375 475L370 479L371 483L376 484L379 478zM792 300L793 299zM371 536L375 531L374 530L373 533zM696 376L698 376L697 375zM359 455L361 456L359 454zM670 322L672 323L670 322zM575 415L577 415L575 415zM646 352L647 352zM356 460L359 461L358 459zM861 461L862 464L866 467L872 468L873 464L871 459L862 459zM860 472L861 476L866 478L867 475L862 470L860 471zM670 323L671 324L670 323z" id="广东省"/>
		<path class="leaflet-interactive" stroke="#333" stroke-opacity="1" stroke-width="1" stroke-linecap="round" stroke-linejoin="round" stroke-dasharray="1,6" fill="#eee" fill-opacity="0.5" fill-rule="evenodd" d="M627 296L643 307L642 308L645 313L650 315L653 322L661 320L659 309L653 297L647 291L641 270L643 266L652 264L653 262L654 263L659 260L670 262L671 259L675 258L676 256L674 256L674 241L678 240L681 241L682 244L684 244L683 241L685 240L683 236L685 235L680 230L680 228L683 227L679 227L678 226L680 225L676 224L671 217L672 213L670 213L668 209L670 209L682 199L686 197L685 198L687 199L688 197L690 197L688 195L690 190L688 184L685 181L675 181L667 185L666 184L663 189L658 188L658 193L652 193L650 197L652 204L648 208L645 207L644 204L641 206L637 206L633 202L628 201L625 208L623 210L620 210L621 211L619 214L616 214L616 216L614 215L612 217L613 219L611 222L607 224L605 223L599 227L591 228L590 232L592 230L594 234L592 235L593 239L597 239L596 244L598 248L600 249L600 246L604 245L603 244L605 243L610 247L610 252L613 255L611 258L611 260L613 260L613 266L611 266L610 268L613 270L617 269L616 277L621 280L619 281L622 291L627 291L629 293L626 294z" id="广州市"/>
		<path class="leaflet-interactive" stroke="#333" stroke-opacity="1" stroke-width="1" stroke-linecap="round" stroke-linejoin="round" stroke-dasharray="1,6" fill="#eee" fill-opacity="0.5" fill-rule="evenodd" d="M666 184L667 185L675 181L685 181L688 183L687 184L690 181L695 182L698 181L699 179L708 179L709 180L706 184L708 183L716 186L720 179L720 173L723 173L723 171L725 171L724 168L739 158L739 153L735 150L727 158L727 164L724 161L723 162L717 160L715 162L713 160L711 157L712 155L709 153L710 152L708 150L710 144L709 142L711 140L710 138L707 138L707 132L712 127L709 121L711 121L713 117L711 113L707 110L700 110L700 106L708 105L711 101L713 101L716 98L715 97L721 87L720 83L723 77L725 77L728 74L731 75L736 67L743 67L752 61L751 58L748 58L746 55L748 55L749 52L753 51L752 47L748 42L742 42L739 36L737 36L734 33L730 37L725 36L723 41L719 43L713 41L711 46L711 44L705 45L703 43L699 43L692 47L690 46L688 49L686 46L687 44L690 43L688 42L687 37L689 36L683 34L685 31L681 29L679 31L674 31L675 33L668 41L663 41L662 38L660 40L658 38L655 41L651 41L647 44L647 41L643 38L634 38L631 34L627 34L626 30L622 30L621 23L619 25L614 23L610 27L609 25L607 25L607 28L604 30L605 33L602 33L602 35L599 36L596 40L592 39L587 42L587 44L584 43L584 41L580 41L582 50L585 51L590 49L597 54L591 58L594 66L594 69L592 71L595 80L593 81L596 88L589 93L590 95L588 101L587 103L584 103L586 108L584 110L583 115L589 115L593 122L599 128L601 128L604 124L607 127L611 127L615 124L620 129L628 125L631 126L632 129L636 129L637 127L638 128L640 126L641 128L643 124L647 123L649 126L652 126L653 128L656 129L658 133L659 131L662 131L664 134L667 135L666 137L671 143L671 149L673 149L675 151L675 154L678 156L672 159L673 161L671 161L670 167L663 173L662 172L660 175L660 177L666 182z" id="韶关市"/>
		<path class="leaflet-interactive" stroke="#333" stroke-opacity="1" stroke-width="1" stroke-linecap="round" stroke-linejoin="round" stroke-dasharray="1,6" fill="#eee" fill-opacity="0.5" fill-rule="evenodd" d="M705 292L701 296L704 300L702 303L702 307L700 308L698 302L691 299L689 296L686 298L684 294L682 294L683 293L680 292L679 290L676 291L674 288L673 290L669 291L670 294L666 296L663 300L662 306L670 317L669 319L671 319L672 326L675 329L682 322L690 323L699 319L700 317L706 319L719 313L724 315L724 317L727 320L729 329L734 328L742 323L742 321L735 316L739 308L731 308L726 306L725 307L725 305L721 301L723 297L721 295L720 298L718 297L716 295L717 293L711 293L708 295L706 294zM668 333L667 331L665 332L667 333zM670 322L672 323L670 322zM670 323L671 324L670 323z" id="深圳市"/>
		<path class="leaflet-interactive" stroke="#333" stroke-opacity="1" stroke-width="1" stroke-linecap="round" stroke-linejoin="round" stroke-dasharray="1,6" fill="#eee" fill-opacity="0.5" fill-rule="evenodd" d="M617 334L608 334L611 337L609 349L602 354L601 360L602 366L607 371L607 374L613 382L618 385L623 381L624 376L634 371L637 367L645 365L644 358L642 355L644 351L648 349L647 344L650 341L649 340L653 334L654 329L650 329L648 333L642 331L640 332L638 335L639 341L636 342L640 347L633 353L625 347L623 340L618 335zM689 364L690 363L687 362L688 363zM706 371L714 367L712 366L706 369L705 371zM659 372L660 371L657 370L658 372zM669 372L669 373zM685 387L687 385L685 386zM668 357L667 355L666 356zM684 368L685 368zM663 376L665 373L661 374L663 376zM688 384L690 382L688 383zM677 369L679 369L678 368zM607 389L608 387L612 386L606 385L606 388zM659 380L662 378L659 377L660 379zM673 361L674 361zM669 361L669 357L668 361zM702 374L705 373L704 371L701 371L701 374zM609 377L609 377zM699 375L700 372L696 374L698 374zM606 380L605 383L608 380L606 380zM654 369L655 370L655 368zM656 378L658 378L657 376L656 377zM676 361L674 361zM658 358L659 358zM685 370L686 369zM657 362L658 363zM696 376L698 376L697 375zM646 352L647 352z" id="珠海市"/>
		<path class="leaflet-interactive" stroke="#333" stroke-opacity="1" stroke-width="1" stroke-linecap="round" stroke-linejoin="round" stroke-dasharray="1,6" fill="#eee" fill-opacity="0.5" fill-rule="evenodd" d="M917 263L921 259L926 259L932 253L941 253L942 251L939 250L938 243L945 233L948 227L947 224L950 221L950 214L948 212L946 213L943 210L936 217L934 214L931 215L932 227L929 231L926 232L922 231L919 228L920 232L918 235L913 230L909 231L911 228L911 224L906 227L904 226L904 223L901 224L899 229L895 230L898 233L899 239L898 241L896 241L897 243L894 246L892 252L890 252L890 262L898 265L898 268L901 269L905 268L907 265L910 264L914 265zM971 229L969 226L967 228L963 227L960 231L956 228L953 232L962 234L965 233L969 235L971 234L971 229z" id="汕头市"/>
		<path class="leaflet-interactive" stroke="#333" stroke-opacity="1" stroke-width="1" stroke-linecap="round" stroke-linejoin="round" stroke-dasharray="1,6" fill="#eee" fill-opacity="0.5" fill-rule="evenodd" d="M591 228L588 228L583 223L586 219L582 217L578 218L580 222L578 228L576 228L574 237L576 238L577 235L583 239L580 247L577 250L580 250L579 252L577 252L576 254L575 251L575 253L574 254L574 252L572 254L575 259L578 272L575 275L574 274L572 276L569 276L569 280L564 280L566 284L564 283L557 287L554 286L553 287L555 289L553 291L549 291L545 295L543 294L538 297L540 306L543 303L550 301L553 303L551 309L555 308L557 303L563 301L564 302L563 301L564 302L564 299L566 298L566 303L573 303L576 301L576 294L579 293L579 290L583 288L587 288L592 293L598 293L601 302L608 306L611 306L615 299L617 299L617 301L621 300L627 296L626 294L629 293L628 291L622 291L620 287L621 286L619 284L619 281L621 280L616 277L617 269L614 270L610 266L613 266L613 260L611 260L613 256L610 252L610 247L605 243L603 244L604 245L601 246L600 249L598 249L598 246L596 244L597 239L593 239L593 230L590 232L591 229zM574 274L574 274z" id="佛山市"/>
		<path class="leaflet-interactive" stroke="#333" stroke-opacity="1" stroke-width="1" stroke-linecap="round" stroke-linejoin="round" stroke-dasharray="1,6" fill="#eee" fill-opacity="0.5" fill-rule="evenodd" d="M518 335L515 339L513 339L513 337L510 338L508 341L508 345L506 347L504 346L503 348L507 352L506 360L511 359L519 366L523 366L523 371L524 370L524 372L532 376L534 384L536 386L532 392L533 395L530 400L535 401L540 399L542 392L548 393L551 397L561 396L575 380L578 380L584 388L588 388L593 385L598 377L596 366L601 361L603 352L608 350L610 346L611 337L608 334L617 334L617 329L608 312L608 306L601 302L598 293L592 294L587 288L579 290L580 293L576 294L576 301L571 304L566 304L566 298L564 299L566 301L565 300L563 302L561 301L557 303L555 308L552 309L551 306L553 305L553 303L550 301L546 302L550 313L545 315L542 311L542 307L540 308L540 311L536 317L537 318L534 317L535 318L533 319L532 316L530 317L530 321L526 323L526 327L524 330L525 332L520 333L520 337L518 335zM573 415L577 413L575 411L577 406L576 401L581 398L582 395L574 395L573 399L568 400L567 404L574 405L569 410L571 410L571 413L573 413L572 414zM551 413L554 413L552 412L554 410L559 411L561 408L563 409L563 407L561 406L563 400L553 405L554 406L551 409L550 413zM542 405L543 407L545 403L543 404zM564 402L565 400L564 401zM583 412L585 411L583 410L581 412zM596 387L598 387L598 385L596 384L594 385L595 387zM562 412L562 411zM556 413L557 412L555 412zM564 411L563 410zM575 415L577 415L575 415z" id="江门市"/>
		<path class="leaflet-interactive" stroke="#333" stroke-opacity="1" stroke-width="1" stroke-linecap="round" stroke-linejoin="round" stroke-dasharray="1,6" fill="#eee" fill-opacity="0.5" fill-rule="evenodd" d="M379 448L379 442L374 444L368 441L368 439L371 438L372 435L365 427L367 421L364 419L364 417L359 415L361 413L358 413L358 410L355 405L358 404L354 403L352 400L354 400L354 395L356 393L352 391L354 391L352 391L352 388L353 386L357 386L356 383L350 383L347 380L346 383L344 384L333 384L333 382L331 382L328 386L319 384L319 386L315 387L315 398L313 399L314 401L311 407L303 407L303 409L301 408L300 405L298 407L297 412L300 418L301 426L312 428L309 435L298 436L299 448L290 458L291 464L289 480L296 498L297 507L303 509L304 519L310 521L311 523L311 526L310 528L308 528L308 531L312 534L312 545L314 547L319 543L323 542L327 542L331 546L336 546L340 543L350 543L355 539L359 539L362 537L367 528L370 527L371 523L363 501L356 501L358 496L356 488L351 485L345 486L340 484L337 481L336 476L340 465L342 469L347 461L353 459L354 457L356 458L359 452L362 452L365 449L377 449zM367 422L367 424L365 424L364 427L367 428L372 435L368 441L374 444L376 442L379 442L379 448L390 435L405 434L409 431L407 427L403 427L403 429L399 421L397 422L398 419L395 416L395 413L393 414L393 410L391 407L387 409L387 421L385 421L385 419L382 419L383 423L380 421L379 423L377 423L371 420L369 424L368 422zM357 382L358 379L361 379L356 377L354 379L356 381zM355 394L355 396L356 394zM370 462L373 462L378 450L368 452L367 450L360 452L360 454L367 457L369 462zM368 463L362 464L358 461L351 463L348 462L346 467L340 472L339 476L349 474L354 471L362 471L366 475L366 477L369 478L371 466L371 464L369 463zM386 419L385 420L386 419zM357 502L360 501L359 498L357 500zM379 477L375 475L370 479L371 483L376 484L379 478zM371 536L375 531L374 530L373 533zM359 455L361 456L359 454zM356 460L359 461L358 459z" id="湛江市"/>
		<path class="leaflet-interactive" stroke="#333" stroke-opacity="1" stroke-width="1" stroke-linecap="round" stroke-linejoin="round" stroke-dasharray="1,6" fill="#eee" fill-opacity="0.5" fill-rule="evenodd" d="M385 419L387 419L387 409L390 407L393 409L393 414L395 413L395 417L398 419L397 422L399 422L402 425L401 427L403 429L403 427L407 427L409 431L417 426L437 423L438 424L436 427L435 426L435 430L444 425L447 421L453 420L449 408L452 402L451 400L446 398L446 395L450 391L449 387L444 384L442 385L441 382L440 383L438 381L437 375L439 369L437 368L442 361L441 356L444 353L444 349L451 345L453 346L454 340L461 336L465 336L469 333L474 326L473 323L468 322L468 324L468 320L466 318L463 319L463 321L459 325L456 323L454 324L454 329L449 330L449 322L443 323L442 321L437 324L436 323L438 319L441 318L437 314L431 315L429 312L428 313L424 310L424 306L421 303L417 309L410 309L408 310L408 312L402 312L401 315L396 315L393 318L393 316L391 315L389 318L390 322L388 323L389 326L385 327L383 325L385 329L385 336L388 337L392 345L388 345L386 343L383 348L379 350L382 354L378 358L375 356L375 354L371 353L367 358L365 358L360 352L358 352L358 354L355 356L352 353L351 354L350 357L354 360L354 363L352 363L352 369L354 372L353 375L361 378L358 379L356 387L354 387L353 385L352 386L351 391L356 392L356 396L354 397L354 400L352 400L354 403L358 404L355 405L357 407L358 413L361 413L359 414L360 416L364 416L364 419L369 423L371 420L377 423L379 423L379 421L383 423L382 420L384 420zM367 422L365 423L367 423zM355 396L355 394L355 396zM386 419L385 420L387 421zM428 434L428 433zM364 427L365 426z" id="茂名市"/>
		<path class="leaflet-interactive" stroke="#333" stroke-opacity="1" stroke-width="1" stroke-linecap="round" stroke-linejoin="round" stroke-dasharray="1,6" fill="#eee" fill-opacity="0.5" fill-rule="evenodd" d="M578 220L576 220L573 214L571 214L574 207L570 208L568 203L567 204L570 199L567 199L567 195L562 193L564 191L566 184L565 182L554 177L549 177L550 173L547 163L541 161L542 156L544 154L543 147L537 140L529 136L529 142L526 142L526 149L522 150L522 152L517 156L510 149L506 153L506 156L503 156L499 151L495 151L495 153L491 152L491 164L497 176L494 180L490 180L490 183L486 183L485 186L487 191L485 194L475 191L475 193L472 191L470 193L468 202L472 203L468 207L468 211L462 210L456 212L455 221L451 228L448 227L446 234L447 237L444 241L446 243L447 242L452 244L451 245L453 245L454 247L458 246L460 243L459 242L464 247L464 249L460 252L464 255L470 256L473 259L474 258L482 261L499 261L501 262L502 265L506 267L512 265L520 267L524 263L528 261L530 262L532 264L528 270L530 273L528 276L529 279L527 279L526 282L530 283L529 286L533 293L531 295L537 294L538 297L545 295L549 291L551 292L555 290L553 287L554 286L556 287L566 284L564 280L569 280L569 276L572 276L573 274L574 275L578 272L572 254L574 252L574 254L575 251L575 254L579 252L580 250L577 250L580 247L583 239L581 239L577 235L576 238L574 237L576 228L578 228L579 226L580 222L578 221z" id="肇庆市"/>
		<path class="leaflet-interactive" stroke="#333" stroke-opacity="1" stroke-width="1" stroke-linecap="round" stroke-linejoin="round" stroke-dasharray="1,6" fill="#eee" fill-opacity="0.5" fill-rule="evenodd" d="M731 307L739 304L739 301L749 295L753 297L751 302L753 315L764 314L765 319L768 319L770 310L778 303L775 298L776 296L775 297L770 293L771 290L769 290L770 287L768 283L780 277L781 274L786 273L789 275L793 269L794 270L798 268L800 266L799 265L802 264L801 258L806 257L813 250L812 245L806 242L804 243L803 238L802 239L800 236L792 236L790 238L787 237L781 242L776 241L775 245L770 239L768 247L763 253L764 255L762 258L760 257L756 253L757 250L754 246L755 243L748 238L749 234L745 233L744 235L742 233L748 228L748 222L744 218L742 220L741 219L741 221L736 217L735 212L731 206L728 204L725 206L723 205L723 203L721 204L719 200L718 202L717 201L714 191L716 186L708 183L707 184L709 180L708 179L700 179L699 181L691 182L690 181L688 184L690 190L688 195L690 196L687 199L682 199L682 201L677 202L674 206L668 209L668 211L672 213L671 217L673 220L680 225L679 226L683 227L680 228L680 230L683 231L683 234L685 235L685 240L683 244L679 240L674 241L675 246L673 248L675 249L676 253L674 255L676 256L670 261L672 263L681 263L685 266L689 264L693 265L694 268L698 271L696 274L697 275L705 276L704 281L708 284L706 286L706 294L707 295L710 293L717 293L716 295L718 297L723 297L721 301L723 304L725 304L724 306L731 307zM744 316L745 317L743 316zM742 328L744 328L742 326L741 327zM740 306L741 307zM761 322L762 322zM744 306L744 307zM751 316L750 315zM743 330L744 329z" id="惠州市"/>
		<path class="leaflet-interactive" stroke="#333" stroke-opacity="1" stroke-width="1" stroke-linecap="round" stroke-linejoin="round" stroke-dasharray="1,6" fill="#eee" fill-opacity="0.5" fill-rule="evenodd" d="M900 201L906 196L909 199L913 198L914 190L912 189L914 186L922 184L922 180L924 180L922 178L925 178L925 176L930 175L929 174L931 173L931 168L933 169L937 165L936 162L944 156L946 158L947 155L949 155L948 153L950 151L952 152L952 147L950 146L948 140L949 138L947 135L946 136L943 130L945 128L942 125L939 125L938 121L936 120L936 116L941 109L940 107L937 107L935 109L931 108L923 111L921 109L919 112L915 114L913 113L911 103L907 103L904 99L905 98L901 94L901 92L905 91L904 89L902 89L903 87L898 89L898 92L893 95L889 95L889 92L887 92L887 90L884 87L881 90L873 90L869 84L865 85L864 83L857 81L857 88L855 88L851 84L849 85L844 100L846 104L849 106L845 108L847 108L848 112L853 118L847 118L841 121L838 120L837 114L831 112L828 113L826 110L823 112L822 117L820 118L820 125L826 126L826 128L827 127L830 129L828 131L829 134L826 136L826 141L829 149L828 154L826 154L825 157L821 156L824 164L822 165L821 162L819 162L819 160L818 162L816 162L814 168L816 171L817 178L813 180L809 188L810 189L807 193L809 194L807 194L808 195L804 198L807 199L811 197L812 198L810 200L814 205L817 205L815 211L815 218L817 219L815 221L816 224L813 226L816 230L815 231L817 232L817 236L822 236L823 232L827 231L834 223L834 221L838 219L842 223L847 223L847 220L849 219L848 213L852 208L855 211L860 212L865 207L867 207L869 210L882 213L884 210L883 207L887 202L888 203L893 198L894 199L896 197L899 200z" id="梅州市"/>
		<path class="leaflet-interactive" stroke="#333" stroke-opacity="1" stroke-width="1" stroke-linecap="round" stroke-linejoin="round" stroke-dasharray="1,6" fill="#eee" fill-opacity="0.5" fill-rule="evenodd" d="M831 227L827 231L822 233L822 235L818 239L821 242L814 246L815 247L810 254L807 255L805 258L802 258L802 264L799 265L800 266L794 270L793 269L789 274L783 273L780 277L768 283L770 286L769 289L771 290L770 293L775 297L776 296L776 301L778 302L782 295L790 293L790 295L793 296L793 292L798 291L799 292L796 295L806 296L807 301L810 305L818 304L828 308L829 306L827 305L831 298L825 298L830 289L835 287L838 287L839 289L847 293L849 300L851 300L860 293L862 294L872 289L875 292L883 288L887 282L886 281L883 281L881 285L874 284L874 282L867 279L865 281L864 277L863 279L861 278L863 272L860 272L864 269L861 267L859 264L860 263L858 261L854 262L853 264L848 261L847 258L842 256L842 254L843 253L844 255L845 253L844 250L851 248L848 246L848 243L850 241L846 236L837 239L838 234L831 227zM937 492L936 495L946 496L948 501L944 506L935 508L939 511L942 511L947 509L952 502L949 493L941 492zM785 296L785 295zM934 500L932 499zM792 300L793 299zM861 461L862 464L866 467L872 468L873 464L871 459L862 459zM860 472L861 476L866 478L867 475L862 470L860 471z" id="汕尾市"/>
		<path class="leaflet-interactive" stroke="#333" stroke-opacity="1" stroke-width="1" stroke-linecap="round" stroke-linejoin="round" stroke-dasharray="1,6" fill="#eee" fill-opacity="0.5" fill-rule="evenodd" d="M814 250L814 246L816 246L817 243L821 242L818 241L819 237L817 236L817 232L815 231L816 230L814 226L816 224L815 221L817 219L815 218L817 204L813 204L813 202L810 200L812 198L811 197L807 199L804 198L808 195L807 194L809 194L807 193L808 190L810 189L809 188L814 179L817 178L817 173L814 169L815 164L819 160L819 162L821 162L824 165L821 156L825 158L825 155L828 154L829 149L826 141L826 136L829 134L828 131L830 129L828 129L827 127L826 128L826 126L820 125L820 118L821 119L820 118L826 110L826 106L823 104L824 103L822 103L818 98L813 95L809 97L809 101L801 99L799 102L794 103L792 104L793 105L787 108L785 108L781 104L778 107L774 107L770 110L770 108L768 108L766 112L767 114L764 118L762 114L760 115L753 113L751 114L752 118L749 122L745 116L743 118L741 117L738 121L733 119L724 126L722 124L721 125L722 123L720 121L720 118L718 116L715 116L713 119L709 121L713 127L707 132L707 138L711 139L709 142L710 143L708 150L710 152L709 153L712 155L711 156L713 160L723 161L727 164L727 158L729 155L735 150L739 153L739 157L735 160L736 161L731 164L730 163L725 168L725 171L723 171L723 173L722 172L719 176L720 178L716 186L717 188L714 191L716 195L715 197L718 202L719 200L721 204L723 203L723 205L725 206L728 204L731 206L737 218L741 221L741 219L742 220L744 218L745 221L748 221L748 227L743 233L744 235L744 233L749 234L748 238L750 238L754 243L754 246L757 250L756 253L762 258L765 250L768 247L768 240L770 239L774 245L776 242L780 242L787 237L790 238L792 236L800 236L802 239L803 238L804 243L806 242L811 245L812 249z" id="河源市"/>
		<path class="leaflet-interactive" stroke="#333" stroke-opacity="1" stroke-width="1" stroke-linecap="round" stroke-linejoin="round" stroke-dasharray="1,6" fill="#eee" fill-opacity="0.5" fill-rule="evenodd" d="M531 401L530 397L536 386L534 384L533 376L524 372L524 370L523 371L522 369L524 367L519 366L517 363L514 363L511 359L506 361L505 360L507 358L507 353L503 346L506 347L508 345L510 338L513 337L513 339L515 339L517 333L510 331L501 323L500 317L502 317L502 314L499 311L497 311L493 316L488 315L487 314L489 312L490 313L489 311L491 307L490 308L488 305L485 308L486 310L477 319L472 330L465 336L461 336L456 339L453 342L453 346L451 345L448 348L444 349L444 353L441 356L442 360L437 368L439 371L437 377L438 381L440 383L441 382L442 385L444 384L445 386L449 387L450 391L446 395L447 399L451 400L452 402L449 407L449 412L451 415L452 414L453 420L455 421L463 421L467 419L470 420L473 418L474 413L481 410L487 413L485 416L490 416L497 411L498 412L505 409L505 407L498 405L498 401L508 395L518 392L520 393L520 398L523 399L524 402L529 402zM519 417L521 417L519 416zM515 411L516 410zM513 408L513 407z" id="阳江市"/>
		<path class="leaflet-interactive" stroke="#333" stroke-opacity="1" stroke-width="1" stroke-linecap="round" stroke-linejoin="round" stroke-dasharray="1,6" fill="#eee" fill-opacity="0.5" fill-rule="evenodd" d="M593 82L585 82L582 85L576 86L574 85L574 81L570 79L568 67L563 63L563 61L549 61L544 59L543 56L540 60L536 55L531 57L530 59L526 59L525 56L521 56L518 62L519 64L516 69L517 72L513 78L515 81L518 82L518 88L516 91L515 90L511 92L504 102L502 101L499 103L497 106L498 110L496 112L503 121L501 127L508 136L507 143L501 149L500 148L497 150L503 156L505 156L507 155L506 153L507 150L509 149L512 152L514 152L514 154L517 156L522 152L522 150L526 149L526 143L529 142L529 136L537 140L539 144L543 146L544 154L542 156L541 161L547 163L550 173L549 177L554 177L561 181L563 180L566 183L564 191L562 193L567 194L566 198L569 199L569 202L567 203L569 207L574 207L571 214L573 214L576 220L578 220L578 218L581 217L586 219L583 223L590 230L590 228L599 227L605 223L611 223L613 220L613 216L616 216L615 214L619 213L628 201L633 202L637 206L644 204L645 207L648 208L652 204L650 197L652 193L658 193L658 189L662 189L666 184L664 179L661 179L659 175L669 168L672 159L678 156L675 154L674 150L670 148L671 143L666 137L667 136L663 133L663 131L660 131L659 133L656 131L656 129L648 125L648 123L646 125L644 124L641 128L640 126L638 128L637 127L636 129L632 129L631 127L628 126L620 129L616 124L612 127L607 128L604 124L601 128L599 128L593 122L589 115L583 115L586 108L584 103L587 103L587 99L590 95L589 93L595 90L596 88L594 83z" id="清远市"/>
		<path class="leaflet-interactive" stroke="#333" stroke-opacity="1" stroke-width="1" stroke-linecap="round" stroke-linejoin="round" stroke-dasharray="1,6" fill="#eee" fill-opacity="0.5" fill-rule="evenodd" d="M705 292L706 285L707 286L708 284L704 281L705 277L704 275L701 274L699 276L697 275L696 274L698 271L691 264L685 266L682 263L672 263L670 261L659 260L644 266L641 270L647 291L655 301L659 300L662 302L669 294L669 291L675 288L676 290L682 292L682 294L683 293L686 298L689 296L689 298L698 302L700 308L702 307L704 301L701 297L704 293z" id="东莞市"/>
		<path class="leaflet-interactive" stroke="#333" stroke-opacity="1" stroke-width="1" stroke-linecap="round" stroke-linejoin="round" stroke-dasharray="1,6" fill="#eee" fill-opacity="0.5" fill-rule="evenodd" d="M645 332L657 322L653 322L650 315L646 313L642 309L643 307L636 301L632 300L627 296L618 301L617 299L615 299L612 306L608 306L608 312L617 329L617 334L623 340L625 347L633 353L640 348L636 342L639 341L638 334L639 332L642 331z" id="中山市"/>
		<path class="leaflet-interactive" stroke="#333" stroke-opacity="1" stroke-width="1" stroke-linecap="round" stroke-linejoin="round" stroke-dasharray="1,6" fill="#eee" fill-opacity="0.5" fill-rule="evenodd" d="M950 221L954 224L959 224L962 220L967 221L975 218L975 211L971 209L969 210L964 205L962 205L962 199L959 194L960 191L959 189L954 188L956 186L954 183L956 181L956 175L953 174L954 173L952 171L953 169L951 168L951 166L952 162L957 157L954 153L950 151L946 158L944 156L936 162L936 167L933 169L931 168L931 173L929 177L925 175L925 178L922 178L924 180L922 180L922 184L917 184L912 189L914 190L913 198L909 199L906 196L900 203L906 205L907 207L915 211L914 215L916 217L917 216L919 220L917 220L916 224L924 229L924 231L926 232L931 230L932 227L931 215L934 214L935 217L939 215L939 213L940 214L942 210L945 211L946 213L948 212L950 214L950 218z" id="潮州市"/>
		<path class="leaflet-interactive" stroke="#333" stroke-opacity="1" stroke-width="1" stroke-linecap="round" stroke-linejoin="round" stroke-dasharray="1,6" fill="#eee" fill-opacity="0.5" fill-rule="evenodd" d="M917 263L914 265L910 264L901 270L898 268L898 265L890 262L889 260L891 254L890 252L892 252L894 246L897 243L896 242L899 239L899 236L895 230L899 229L901 224L904 223L905 227L911 224L911 228L909 230L913 230L917 233L918 236L920 232L919 228L924 231L923 228L916 224L916 222L919 220L918 217L914 215L915 211L900 203L897 197L891 199L888 203L886 203L883 207L884 210L882 213L875 212L868 209L867 207L865 207L860 212L857 212L852 208L848 213L849 219L847 223L842 223L839 221L839 219L834 221L834 223L832 224L832 229L838 234L837 239L846 236L850 241L848 243L848 246L851 247L845 250L845 253L844 255L843 253L842 256L847 258L853 264L854 262L857 261L859 263L863 269L860 272L862 272L861 278L864 277L865 281L869 280L877 285L882 284L883 281L889 282L894 279L901 282L908 280L913 281L915 275L918 274L919 272L917 268L918 265z" id="揭阳市"/>
		<path class="leaflet-interactive" stroke="#333" stroke-opacity="1" stroke-width="1" stroke-linecap="round" stroke-linejoin="round" stroke-dasharray="1,6" fill="#eee" fill-opacity="0.5" fill-rule="evenodd" d="M546 303L543 303L541 306L539 304L540 303L537 295L532 295L532 291L529 286L530 283L526 283L526 280L529 279L528 277L530 273L528 270L532 265L531 262L528 261L520 267L515 265L507 267L502 265L500 261L495 262L491 260L482 261L474 258L473 259L470 256L464 255L460 252L464 249L460 242L458 245L454 247L451 245L452 244L447 242L443 247L445 248L447 253L446 257L448 258L445 260L446 265L447 267L451 267L451 270L449 271L445 279L446 280L443 287L439 289L438 292L435 295L433 295L433 297L430 300L417 300L417 302L420 304L423 303L423 307L427 313L429 312L434 315L439 315L441 318L438 319L436 323L437 324L442 321L443 323L448 322L450 328L449 330L454 329L454 324L456 323L459 325L463 321L462 320L466 318L468 320L468 324L468 322L473 323L473 325L476 323L479 316L486 310L485 309L487 305L490 308L491 307L491 310L486 314L493 316L499 310L502 316L500 317L502 324L510 331L517 333L520 337L520 333L525 332L524 330L526 327L526 323L530 322L530 317L533 317L533 319L535 319L534 318L536 317L537 318L536 317L541 307L545 315L550 313L547 305z" id="云浮市"/>
	</g>
</svg>