<?xml version="1.0" encoding="UTF-8"?>
<svg viewBox="0 0 793.7 1122.5" xmlns="http://www.w3.org/2000/svg">
	<g fill="none" stroke="#000" stroke-width="3.125">
		<path d="m782.98 577.54a387.3 397.46 0 1 0 -774.61 0 387.3 397.46 0 1 0 774.61 0z"/>
		<path d="m378.74 182.34s-109.95 45.977-112.21 398.28c-2.2584 352.3 123.5 394.4 123.5 394.4"/>
		<path d="m378.74 182.34s338.75 45.166 336.49 397.46c-2.2583 352.3-325.2 395.21-325.2 395.21"/>
		<path d="m378.74 182.34s121.21 47.46 118.95 399.76c-2.2584 352.3-107.66 392.91-107.66 392.91"/>
		<path d="m378.74 182.34s-307.84 40.684-310.1 392.98c-2.2583 352.3 321.39 399.69 321.39 399.69"/>
		<path d="m378.74 182.34s225.83 40.65 223.57 392.95c-2.2582 352.3-212.28 399.72-212.28 399.72"/>
		<path d="m378.74 182.34s-227.72 42.236-229.98 394.54c-2.2584 352.3 241.27 398.14 241.27 398.14"/>
		<path d="m378.74 182.34s6.775 33.875 4.5166 386.17c-2.2582 352.3 6.7749 406.5 6.7749 406.5"/>
		<path d="m240.98 213.95s9.0333 51.942 140.02 51.942c130.98 0 169.37-47.425 169.37-47.425"/>
		<path d="m113.88 306.54s6.4347 79.041 265.11 79.041 307.51-74.525 302.99-72.266"/>
		<path d="m48.895 399.13s29.877 101.62 332.11 101.62 363.72-92.591 363.72-92.591"/>
		<path d="m13.009 523.34s49.446 83.558 373.46 83.558 391.88-79.041 391.88-79.041"/>
		<path d="m13.012 615.93s47.121 94.85 370.17 94.85 392.9-90.333 392.9-90.333"/>
		<path d="m35.368 715.3s45.75 88.075 348.92 88.075 367.19-83.558 367.19-83.558"/>
		<path d="m84.569 812.41s38.426 76.783 300.89 76.783 319.07-72.266 319.07-72.266"/>
		<path d="m156.1 884.67s31.99 72.267 233.89 72.267 243.01-67.75 243.01-67.75"/>
	</g>
</svg>