<?xml version="1.0" encoding="UTF-8"?>
<svg xmlns="http://www.w3.org/2000/svg" enable-background="new 0 0 4999.9312 5000" version="1.1" viewBox="0 0 4999.9 5e3"> <path d="m1329.4 4554.6h96.837c-57.462-52.849-112.41-109.67-164.57-169.97h-111.68c56.959 60.401 116.88 117.21 179.42 169.97z" fill="#592900"/> <path d="m4194.6 1086.5h-140.2c39.491 76.43 75.598 155.42 108.23 236.51h149.96c-35.607-81.179-74.985-160.17-117.99-236.51z" fill="#751F67"/> <path d="m958.24 4152.5h127.54c-46.196-69.574-89.24-142.2-129-217.42h-139.18c43.394 75.309 90.337 147.94 140.63 217.42z" fill="#2D8713"/> <path d="m805.31 3913.5h140.2c-39.491-76.431-75.598-155.42-108.23-236.52h-149.96c35.607 81.18 74.985 160.17 117.99 236.52z" fill="#1D8DA7"/> <path d="m1436.1 4554.6h111.17c-51.103-52.972-99.836-109.8-146.02-169.97h-128.21c51.674 60.294 106.11 117.11 163.06 169.97z" fill="#59AB01"/> <path d="m2000.3 4554.6h150.45c-19.003-53.732-36.79-110.47-53.53-169.97h-173.5c24.012 59.65 49.496 116.43 76.589 169.97z" fill="#71114B"/> <path d="m1842.6 4554.6h143.65c-27.842-53.525-54.042-110.31-78.733-169.97h-165.67c31.683 59.831 65.251 116.64 100.75 169.97z" fill="#5D4FAB"/> <path d="m1150 615.39h111.68c52.164-60.305 107.11-117.12 164.57-169.97h-96.837c-62.541 52.761-122.46 109.57-179.42 169.97z" fill="#F52987"/> <path d="m1694.7 4554.6h134.75c-36.203-53.315-70.45-110.12-102.78-169.97h-155.4c38.93 60.006 80.097 116.83 123.43 169.97z" fill="#4D53DD"/> <path d="m1558.5 4554.6h123.87c-43.987-53.127-85.785-109.95-125.32-169.97h-142.85c45.632 60.163 93.791 116.99 144.31 169.97z" fill="#997F00"/> <path d="m1133.8 4367.3h113.02c-52.218-61.675-101.57-126.88-147.87-195.13h-126.36c50.545 68.349 104.37 133.55 161.21 195.13z" fill="#EB13FD"/> <path d="m508.1 1887h164.78c17.024-89.27 37.788-177.43 62.252-264.07h-159.17c-26.652 86.578-49.297 174.75-67.866 264.07z" fill="#A50D13"/> <path d="m687.32 1323h149.96c32.629-81.099 68.736-160.08 108.23-236.51h-140.2c-43.002 76.341-82.38 155.33-117.99 236.51z" fill="#9FD3A7"/> <path d="m583.64 1598.4h158.53c25.016-85.808 53.66-170 85.87-252.14h-150.79c-35.082 82.069-66.322 166.27-93.614 252.14z" fill="#F19711"/> <path d="m972.59 827.87h126.36c46.296-68.251 95.652-133.45 147.87-195.13h-113.02c-56.839 61.578-110.66 126.78-161.21 195.13z" fill="#87492D"/> <path d="m817.61 1064.9h139.18c39.755-75.217 82.799-147.84 129-217.42h-127.54c-50.292 69.478-97.235 142.11-140.63 217.42z" fill="#534755"/> <path d="m461.79 2184.6h168.61c8.7689-91.431 21.35-182.27 37.72-272.11h-165.21c-17.839 89.805-31.56 180.66-41.122 272.11z" fill="#51632F"/> <path d="m575.97 3377.1h159.17c-24.464-86.638-45.228-174.8-62.252-264.07h-164.78c18.569 89.316 41.215 177.49 67.867 264.07z" fill="#E5C5C1"/> <path d="m502.92 3087.5h165.21c-16.371-89.846-28.952-180.68-37.721-272.12h-168.61c9.5624 91.456 23.283 182.31 41.123 272.12z" fill="#CFB503"/> <path d="m459.18 2789.3h168.83c-8.0521-91.726-12.266-183.91-12.635-276.17h-169.97c0.4025 92.258 4.9985 184.46 13.775 276.17z" fill="#F93F13"/> <path d="m445.41 2486.9h169.97c0.3692-92.256 4.5833-184.44 12.635-276.17h-168.83c-8.7765 91.707-13.372 183.91-13.775 276.17z" fill="#9FF789"/> <path d="m677.26 3653.7h150.79c-32.21-82.145-60.853-166.33-85.869-252.14h-158.53c27.292 85.872 58.532 170.07 93.613 252.14z" fill="#79FD3D"/> <path d="m4538.1 2815.4h-168.61c-8.769 91.432-21.35 182.27-37.721 272.12h165.21c17.839-89.805 31.56-180.66 41.123-272.12z" fill="#DB59E5"/> <path d="m4491.8 3113h-164.78c-17.024 89.27-37.788 177.43-62.252 264.07h159.17c26.652-86.578 49.297-174.75 67.867-264.07z" fill="#4F4D6B"/> <path d="m4554.5 2513.1h-169.97c-0.3691 92.256-4.5835 184.44-12.635 276.17h168.83c8.7764-91.707 13.373-183.91 13.775-276.17z" fill="#D9999D"/> <path d="m4312.6 3677h-149.96c-32.628 81.099-68.736 160.08-108.23 236.52h140.2c43.002-76.341 82.381-155.34 117.99-236.52z" fill="#23FB73"/> <path d="m4182.3 3935.1h-139.18c-39.755 75.217-82.8 147.84-129 217.42h127.54c50.292-69.478 97.235-142.11 140.63-217.42z" fill="#594539"/> <path d="m4416.3 3401.6h-158.53c-25.016 85.807-53.659 169.99-85.869 252.14h150.79c35.082-82.068 66.321-166.27 93.613-252.14z" fill="#F50399"/> <path d="m4424 1622.9h-159.17c24.464 86.638 45.228 174.8 62.252 264.07h164.78c-18.569-89.316-41.215-177.49-67.866-264.07z" fill="#C7198F"/> <path d="m4322.7 1346.3h-150.79c32.21 82.146 60.854 166.33 85.87 252.14h158.53c-27.292-85.872-58.532-170.07-93.614-252.14z" fill="#5B7181"/> <path d="m4497 1912.5h-165.21c16.371 89.845 28.951 180.68 37.72 272.11h168.61c-9.5625-91.456-23.283-182.31-41.123-272.11z" fill="#8903A5"/> <path d="m4540.7 2210.7h-168.83c8.0518 91.726 12.266 183.91 12.635 276.17h169.97c-0.4023-92.258-4.9985-184.46-13.775-276.17z" fill="#E9317F"/> <path d="m2679.6 4554.6h155.03c18.218-53.749 35.262-110.49 51.303-169.97h-178.79c-8.595 59.378-17.734 116.08-27.54 169.97z" fill="#E3B57F"/> <path d="m2335.1 4554.6h157.34c-0.4089-53.958-0.7893-110.64-1.147-169.97h-181.46c7.8836 59.371 16.267 116.07 25.264 169.97z" fill="#5BA53F"/> <path d="m2849.2 4554.6h150.45c27.093-53.544 52.577-110.32 76.589-169.97h-173.51c-16.74 59.499-34.527 116.24-53.53 169.97z" fill="#D9CD9F"/> <path d="m2507.4 4554.6h157.34c8.9968-53.903 17.38-110.6 25.263-169.97h-181.46c-0.3576 59.331-0.738 116.01-1.1469 169.97z" fill="#D3BB77"/> <path d="m3013.6 4554.6h143.65c35.5-53.332 69.068-110.14 100.75-169.97h-165.67c-24.691 59.666-50.891 116.45-78.733 169.97z" fill="#C94D07"/> <path d="m3170.5 4554.6h134.75c43.338-53.143 84.504-109.97 123.43-169.97h-155.4c-32.33 59.847-66.577 116.66-102.78 169.97z" fill="#DD35DB"/> <path d="m3849.9 4384.6h-111.68c-52.163 60.305-107.11 117.12-164.57 169.97h96.837c62.541-52.761 122.46-109.57 179.42-169.97z" fill="#A1B327"/> <path d="m3452.6 4554.6h111.17c56.943-52.858 111.38-109.68 163.06-169.97h-128.21c-46.183 60.175-94.916 117-146.02 169.97z" fill="#7731C7"/> <path d="m3317.6 4554.6h123.87c50.515-52.984 98.674-109.81 144.31-169.97h-142.85c-39.534 60.021-81.332 116.84-125.32 169.97z" fill="#F355DD"/> <path d="m4027.3 4172.1h-126.36c-46.296 68.251-95.651 133.45-147.87 195.13h113.02c56.839-61.579 110.66-126.78 161.21-195.13z" fill="#DB45DD"/> <path d="m2165.3 4554.6h155.03c-9.8059-53.893-18.945-110.59-27.54-169.97h-178.79c16.04 59.486 33.085 116.22 51.303 169.97z" fill="#2DAD53"/> <path d="m3454.2 4367.3h144.57c45.892-61.815 89.146-127.01 129.66-195.13h-161.63c-35.115 67.983-72.656 133.17-112.6 195.13z" fill="#6D4D0F"/> <path d="m3888.1 4172.1h-145.06c-41.001 68.126-84.77 133.32-131.2 195.13h129.75c51.746-61.685 100.64-126.89 146.51-195.13z" fill="#6D45E5"/> <path d="m4367.2 2513.1h-195.12c-0.3276 92.253-4.0649 184.42-11.21 276.17h193.81c7.9785-91.728 12.153-183.91 12.519-276.17z" fill="#5331D3"/> <path d="m3282.6 4367.3h157.27c39.352-61.969 76.325-127.16 110.91-195.13h-175.82c-28.737 67.834-59.499 133-92.348 195.13z" fill="#8961DF"/> <path d="m2907.6 4367.3h175.59c24.553-62.313 47.452-127.45 68.815-195.13h-196.31c-14.906 67.561-30.896 132.67-48.096 195.13z" fill="#45A57D"/> <path d="m3099.5 4367.3h167.66c32.208-62.139 62.361-127.31 90.525-195.13h-187.44c-21.965 67.687-45.508 132.83-70.742 195.13z" fill="#7B639B"/> <path d="m4352.3 2815.4h-193.57c-7.7778 91.404-18.935 182.22-33.468 272.12h189.66c16.221-89.85 28.685-180.69 37.373-272.12z" fill="#FD5969"/> <path d="m4147.3 3677h-172.15c-28.916 81.003-60.936 159.97-96.024 236.52h160.94c39.132-76.44 74.905-155.42 107.23-236.52z" fill="#E55F97"/> <path d="m4310.2 3113h-189.17c-15.096 89.218-33.51 177.36-55.233 264.07h182.72c24.24-86.644 44.812-174.8 61.679-264.07z" fill="#0B07CD"/> <path d="m4241.6 3401.6h-181.99c-22.176 85.732-47.578 169.9-76.187 252.14h173.1c31.916-82.153 60.294-166.34 85.078-252.14z" fill="#3FE5FD"/> <path d="m4028.9 3935.1h-159.78c-35.22 75.103-73.391 147.72-114.45 217.42h146.42c45.777-69.584 88.423-142.21 127.81-217.42z" fill="#DBED2B"/> <path d="m1560.1 4367.3h157.27c-32.849-62.124-63.612-127.29-92.348-195.13h-175.82c34.581 67.971 71.554 133.16 110.91 195.13z" fill="#1BCB5D"/> <path d="m1401.2 4367.3h144.57c-39.944-61.955-77.484-127.14-112.6-195.13h-161.63c40.513 68.114 83.767 133.31 129.66 195.13z" fill="#B931BF"/> <path d="m1258.4 4367.3h129.75c-46.427-61.803-90.197-127-131.2-195.13h-145.06c45.863 68.241 94.762 133.44 146.51 195.13z" fill="#1F2587"/> <path d="m1732.8 4367.3h167.66c-25.234-62.298-48.776-127.44-70.742-195.13h-187.44c28.164 67.82 58.316 132.99 90.525 195.13z" fill="#395B41"/> <path d="m2709.7 4367.3h180.94c16.488-62.468 31.812-127.57 46.096-195.13h-202.29c-7.6592 67.474-15.88 132.56-24.745 195.13z" fill="#A35F93"/> <path d="m2508.7 4367.3h183.64c8.1331-62.577 15.674-127.66 22.699-195.13h-205.3c-0.3188 67.441-0.6609 132.51-1.0305 195.13z" fill="#619FD7"/> <path d="m1916.8 4367.3h175.59c-17.2-62.456-33.19-127.57-48.096-195.13h-196.31c21.364 67.675 44.262 132.81 68.815 195.13z" fill="#134771"/> <path d="m2307.6 4367.3h183.64c-0.3694-62.614-0.7117-127.69-1.0305-195.13h-205.3c7.0257 67.469 14.566 132.55 22.7 195.13z" fill="#3D8FC3"/> <path d="m2109.3 4367.3h180.94c-8.865-62.57-17.086-127.65-24.745-195.13h-202.29c14.284 67.552 29.608 132.66 46.096 195.13z" fill="#B9E7D3"/> <path d="m3305.3 445.41h-134.75c36.203 53.315 70.45 110.12 102.78 169.97h155.4c-38.93-60.007-80.096-116.83-123.43-169.97z" fill="#C757F9"/> <path d="m2492.5 445.41h-157.34c-8.9968 53.903-17.38 110.6-25.263 169.97h181.46c0.3576-59.331 0.738-116.01 1.1469-169.97z" fill="#79E9B1"/> <path d="m2320.3 445.41h-155.03c-18.218 53.749-35.263 110.49-51.303 169.97h178.79c8.5953-59.378 17.735-116.08 27.541-169.97z" fill="#01BBB9"/> <path d="m2664.8 445.41h-157.34c0.4089 53.958 0.7893 110.64 1.147 169.97h181.46c-7.8836-59.37-16.267-116.07-25.264-169.97z" fill="#11FDE5"/> <path d="m2834.7 445.41h-155.03c9.8059 53.893 18.945 110.59 27.54 169.97h178.79c-16.04-59.486-33.085-116.22-51.303-169.97z" fill="#573D9F"/> <path d="m4354.7 2210.7h-193.81c7.1455 91.748 10.883 183.92 11.21 276.17h195.12c-0.3657-92.256-4.5405-184.44-12.519-276.17z" fill="#DFB1A9"/> <path d="m2150.7 445.41h-150.45c-27.093 53.543-52.577 110.32-76.589 169.97h173.5c16.74-59.499 34.527-116.24 53.53-169.97z" fill="#B79515"/> <path d="m3157.3 445.41h-143.65c27.842 53.525 54.042 110.31 78.733 169.97h165.67c-31.683-59.831-65.251-116.64-100.75-169.97z" fill="#89DD65"/> <path d="m1829.4 445.41h-134.75c-43.338 53.142-84.504 109.96-123.43 169.97h155.4c32.33-59.847 66.578-116.66 102.78-169.97z" fill="#EF51E3"/> <path d="m1682.4 445.41h-123.87c-50.514 52.984-98.674 109.81-144.31 169.97h142.85c39.534-60.021 81.332-116.84 125.32-169.97z" fill="#877B51"/> <path d="m1986.3 445.41h-143.65c-35.5 53.332-69.068 110.14-100.75 169.97h165.67c24.691-59.665 50.891-116.45 78.733-169.97z" fill="#193D5F"/> <path d="m2999.6 445.41h-150.45c19.003 53.732 36.79 110.47 53.53 169.97h173.51c-24.012-59.65-49.496-116.43-76.589-169.97z" fill="#F3418D"/> <path d="m4156.5 1346.3h-173.1c28.61 82.237 54.012 166.41 76.188 252.14h182c-24.784-85.802-53.163-169.99-85.079-252.14z" fill="#67953F"/> <path d="m4248.5 1622.9h-182.72c21.723 86.708 40.137 174.85 55.233 264.07h189.17c-16.867-89.266-37.438-177.42-61.678-264.07z" fill="#A10DBB"/> <path d="m4040.1 1086.5h-160.94c35.089 76.54 67.109 155.51 96.024 236.51h172.15c-32.325-81.091-68.098-160.07-107.23-236.51z" fill="#95E5F1"/> <path d="m4314.9 1912.5h-189.66c14.532 89.892 25.69 180.71 33.467 272.11h193.57c-8.6881-91.429-21.152-182.27-37.373-272.11z" fill="#8CC63F"/> <path d="m1547.3 445.41h-111.17c-56.943 52.858-111.38 109.68-163.06 169.97h128.21c46.183-60.175 94.916-117 146.02-169.97z" fill="#7BB77F"/> <path d="m3441.4 445.41h-123.87c43.987 53.127 85.785 109.95 125.32 169.97h142.85c-45.632-60.163-93.791-116.99-144.31-169.97z" fill="#BD914D"/> <path d="m3563.8 445.41h-111.17c51.102 52.972 99.836 109.8 146.02 169.97h128.21c-51.674-60.295-106.11-117.11-163.06-169.97z" fill="#779DD5"/> <path d="m3741.6 632.75h-129.75c46.427 61.803 90.197 127 131.2 195.13h145.06c-45.863-68.241-94.762-133.44-146.51-195.13z" fill="#154DAF"/> <path d="m3901.1 847.49h-146.42c41.06 69.697 79.231 142.31 114.45 217.42h159.78c-39.384-75.208-82.03-147.83-127.81-217.42z" fill="#3B811D"/> <path d="m4462.1 1346.3h-126.26c35.332 82.062 66.799 166.26 94.291 252.14h132.74c-29.402-85.935-63.044-170.15-100.78-252.14z" fill="#C1E355"/> <path d="m3740.9 4569.4h-79.851c-63.01 51.587-128.62 99.168-196.4 142.32h66.343c72.361-43.102 142.48-90.67 209.91-142.32z" fill="#05EDA5"/> <path d="m4311 3935.1h-116.54c-43.712 75.317-90.996 147.95-141.65 217.42h106.79c54.072-69.391 104.62-142.02 151.39-217.42z" fill="#19DB3D"/> <path d="m4649.8 1912.5h-138.34c17.967 89.801 31.788 180.66 41.419 272.11h141.18c-10.296-91.48-25.073-182.35-44.268-272.11z" fill="#8DF78B"/> <path d="m4144.2 4172.1h-105.8c-50.916 68.357-105.13 133.56-162.37 195.13h94.634c61.104-61.495 119.06-126.69 173.54-195.13z" fill="#CD27D1"/> <path d="m3953.2 4384.6h-93.512c-57.378 60.409-117.73 117.22-180.71 169.97h81.084c67.232-52.688 131.74-109.49 193.14-169.97z" fill="#9111FF"/> <path d="m4562.9 3401.6h-132.74c-27.491 85.877-58.958 170.08-94.29 252.14h126.26c37.731-81.995 71.373-166.21 100.77-252.14z" fill="#A5BDDB"/> <path d="m4711.7 2513.1h-142.32c-0.4058 92.259-5.0352 184.46-13.874 276.17h141.36c9.4457-91.688 14.396-183.91 14.829-276.17z" fill="#6D51B9"/> <path d="m4696.9 2210.7h-141.36c8.8394 91.705 13.469 183.91 13.874 276.17h142.32c-0.433-92.261-5.3828-184.48-14.829-276.17z" fill="#E5875D"/> <path d="m4694.1 2815.4h-141.18c-9.6318 91.458-23.452 182.31-41.42 272.12h138.34c19.196-89.765 33.972-180.64 44.268-272.12z" fill="#49778F"/> <path d="m4644.2 3113h-137.98c-18.704 89.32-41.514 177.49-68.357 264.07h133.27c28.671-86.519 53.058-174.71 73.058-264.07z" fill="#CBDF3B"/> <path d="m4451.3 3677h-125.56c-35.867 81.187-75.532 160.18-118.84 236.52h117.39c46.241-76.258 88.646-155.26 127.01-236.52z" fill="#6DB14B"/> <path d="m3378.5 4711.8h79.233c67.308-43.159 132.44-90.742 194.99-142.32h-95.364c-57.279 51.494-117.02 99.091-178.86 142.32z" fill="#3DFB05"/> <path d="m2506.1 4711.8h128.74c9.7551-44.424 18.849-91.913 27.457-142.32h-154.95c-0.3901 50.35-0.8027 97.812-1.2463 142.32z" fill="#BF19C5"/> <path d="m2365.1 4711.8h128.74c-0.4438-44.51-0.8562-91.972-1.2466-142.32h-154.95c8.6075 50.409 17.702 97.898 27.457 142.32z" fill="#516FA9"/> <path d="m2226.1 4711.8h126.85c-10.631-44.408-20.546-91.902-29.931-142.32h-152.67c17.536 50.574 36.048 98.124 55.757 142.32z" fill="#F3EF09"/> <path d="m2785.7 4711.8h123.1c29.245-43.93 56.947-91.532 83.238-142.32h-148.16c-18.304 50.591-37.623 98.147-58.177 142.32z" fill="#7FDD4F"/> <path d="m2647 4711.8h126.85c19.709-44.198 38.22-91.748 55.757-142.32h-152.67c-9.3852 50.419-19.301 97.914-29.931 142.32z" fill="#75479F"/> <path d="m3279.4 4711.8h90.959c61.283-43.239 120.47-90.837 177.21-142.32h-109.48c-50.7 51.372-103.69 98.985-158.7 142.32z" fill="#CF4901"/> <path d="m3168.9 4711.8h101.35c54.372-43.347 106.74-90.962 156.83-142.32h-121.98c-43.381 51.216-88.837 98.842-136.2 142.32z" fill="#09636B"/> <path d="m3048.6 4711.8h110.25c46.665-43.494 91.435-91.121 134.15-142.32h-132.7c-35.447 51.026-72.69 98.653-111.7 142.32z" fill="#69B7ED"/> <path d="m2920.3 4711.8h117.54c38.26-43.688 74.763-91.314 109.5-142.32h-141.47c-27.038 50.809-55.52 98.414-85.569 142.32z" fill="#1F6F9F"/> <path d="m3087.8 163.54h-77.343c49.997 33.158 98.462 70.883 145.08 112.58h99.323c-53.847-41.829-109.67-79.528-167.06-112.58z" fill="#ED5341"/> <path d="m2602.9 163.54h-98.244c0.4749 34.409 0.9121 71.953 1.3276 112.58h126.16c-9.1777-40.723-18.834-78.324-29.247-112.58z" fill="#ED0D13"/> <path d="m2812 163.54h-93.939c21.825 33.886 42.397 71.592 61.97 112.58h120.63c-28.18-41.246-57.715-78.996-88.666-112.58z" fill="#155973"/> <path d="m2091.1 4711.8h123.1c-20.554-44.175-39.873-91.73-58.177-142.32h-148.16c26.292 50.79 53.993 98.392 83.238 142.32z" fill="#ED7DA9"/> <path d="m3002.8 163.54h-84.138c41.208 33.322 80.926 71.071 118.99 112.58h108.05c-45.9-41.686-93.635-79.413-142.9-112.58z" fill="#61B5AD"/> <path d="m2910.4 163.54h-89.696c31.794 33.562 62.163 71.313 91.148 112.58h115.19c-37.292-41.493-76.222-79.243-116.64-112.58z" fill="#A989CB"/> <path d="m2709 163.54h-96.802c11.344 34.234 21.874 71.842 31.883 112.58h124.31c-18.748-40.966-38.456-78.665-59.393-112.58z" fill="#3163B7"/> <path d="m2179.2 163.54h-89.696c-40.416 33.34-79.346 71.09-116.64 112.58h115.19c28.985-41.269 59.354-79.021 91.148-112.58z" fill="#2D6199"/> <path d="m4571.1 1622.9h-133.27c26.843 86.572 49.653 174.75 68.357 264.07h137.98c-20-89.361-44.387-177.55-73.059-264.07z" fill="#959B6D"/> <path d="m2281.9 163.54h-93.938c-30.951 33.587-60.486 71.337-88.666 112.58h120.63c19.574-40.99 40.145-78.696 61.97-112.58z" fill="#21A743"/> <path d="m2387.8 163.54h-96.802c-20.936 33.918-40.644 71.617-59.392 112.58h124.31c10.009-40.74 20.539-78.349 31.883-112.58z" fill="#C7251B"/> <path d="m2495.3 163.54h-98.244c-10.414 34.259-20.07 71.859-29.247 112.58h126.16c0.4157-40.629 0.853-78.174 1.3279-112.58z" fill="#73F539"/> <path d="m4324.3 1086.5h-117.39c43.308 76.333 82.973 155.33 118.84 236.51h125.56c-38.367-81.256-80.772-160.26-127.01-236.51z" fill="#5F9F7F"/> <path d="m4159.6 847.49h-106.79c50.649 69.469 97.933 142.1 141.65 217.42h116.54c-46.767-75.395-97.315-148.03-151.39-217.42z" fill="#D537E5"/> <path d="m3164.2 163.54h-69.414c58.059 33.046 114.54 70.743 169.04 112.58h89.14c-60.997-41.934-124.07-79.607-188.77-112.58z" fill="#C9E5EF"/> <path d="m3970.6 632.75h-94.634c57.242 61.57 111.46 126.77 162.37 195.13h105.8c-54.481-68.437-112.43-133.63-173.54-195.13z" fill="#8341C5"/> <path d="m1098.8 4152.5h146.42c-41.06-69.697-79.232-142.31-114.45-217.42h-159.78c39.384 75.208 82.03 147.83 127.81 217.42z" fill="#572709"/> <path d="m3760.1 445.41h-81.084c62.984 52.754 123.34 109.56 180.71 169.97h93.512c-61.4-60.484-125.91-117.28-193.14-169.97z" fill="#BF2739"/> <path d="m3286.8 163.54h-50.629c71.572 32.917 141.48 70.567 209.21 112.58h65.017c-72.475-42.065-147.18-79.7-223.6-112.58z" fill="#8B5563"/> <path d="m3230.9 163.54h-60.465c65.285 32.97 128.95 70.641 190.52 112.58h77.648c-67.238-42.01-136.64-79.662-207.71-112.58z" fill="#6FBD73"/> <path d="m3531 288.24h-66.344c67.785 43.153 133.39 90.734 196.4 142.32h79.851c-67.427-51.651-137.55-99.219-209.91-142.32z" fill="#2F2F8F"/> <path d="m3158.9 288.24h-110.25c39.013 43.668 76.256 91.295 111.7 142.32h132.7c-42.716-51.201-87.485-98.828-134.15-142.32z" fill="#371B9B"/> <path d="m2214.2 288.24h-123.1c-29.245 43.93-56.946 91.532-83.238 142.32h148.16c18.304-50.591 37.623-98.147 58.177-142.32z" fill="#A58BC1"/> <path d="m2079.7 288.24h-117.54c-38.259 43.687-74.763 91.313-109.5 142.32h141.47c27.038-50.809 55.52-98.414 85.568-142.32z" fill="#11B7D1"/> <path d="m2493.8 288.24h-128.74c-9.7551 44.423-18.849 91.912-27.456 142.32h154.95c0.3903-50.349 0.8026-97.811 1.2465-142.32z" fill="#77FB87"/> <path d="m2634.8 288.24h-128.74c0.4436 44.51 0.8562 91.972 1.2463 142.32h154.95c-8.6074-50.409-17.702-97.898-27.457-142.32z" fill="#F33767"/> <path d="m2353 288.24h-126.85c-19.709 44.197-38.22 91.748-55.757 142.32h152.67c9.3853-50.419 19.301-97.913 29.931-142.32z" fill="#C37B9B"/> <path d="m1951.3 288.24h-110.25c-46.665 43.494-91.434 91.12-134.15 142.32h132.7c35.447-51.026 72.69-98.653 111.7-142.32z" fill="#93D9DB"/> <path d="m1259 430.56h79.851c63.01-51.587 128.62-99.168 196.4-142.32h-66.344c-72.361 43.102-142.48 90.67-209.91 142.32z" fill="#6DC76F"/> <path d="m1046.7 615.39h93.512c57.378-60.409 117.73-117.22 180.71-169.97h-81.084c-67.232 52.688-131.74 109.49-193.14 169.97z" fill="#97EF5F"/> <path d="m1720.5 288.24h-90.959c-61.283 43.238-120.47 90.837-177.21 142.32h109.48c50.7-51.371 103.69-98.985 158.69-142.32z" fill="#B79FB9"/> <path d="m1831 288.24h-101.35c-54.371 43.347-106.74 90.962-156.83 142.32h121.98c43.381-51.216 88.837-98.842 136.2-142.32z" fill="#21E135"/> <path d="m1621.4 288.24h-79.233c-67.308 43.159-132.44 90.741-194.99 142.32h95.364c57.278-51.494 117.02-99.091 178.86-142.32z" fill="#656DA5"/> <path d="m3370.4 288.24h-90.959c55.003 43.336 108 90.95 158.69 142.32h109.48c-56.74-51.484-115.93-99.083-177.21-142.32z" fill="#559785"/> <path d="m3457.7 288.24h-79.233c61.842 43.23 121.58 90.828 178.86 142.32h95.364c-62.549-51.58-127.68-99.162-194.99-142.32z" fill="#5D855B"/> <path d="m3670.5 445.41h-96.837c57.463 52.849 112.41 109.67 164.57 169.97h111.68c-56.959-60.401-116.88-117.21-179.42-169.97z" fill="#E10773"/> <path d="m3866.1 632.75h-113.02c52.218 61.675 101.57 126.88 147.87 195.13h126.36c-50.544-68.349-104.37-133.55-161.21-195.13z" fill="#FD0119"/> <path d="m2773.8 288.24h-126.85c10.631 44.408 20.546 91.902 29.931 142.32h152.67c-17.536-50.573-36.047-98.124-55.757-142.32z" fill="#DB2579"/> <path d="m3270.3 288.24h-101.35c47.362 43.479 92.818 91.105 136.2 142.32h121.98c-50.093-51.359-102.46-98.974-156.83-142.32z" fill="#B70009"/> <path d="m2908.8 288.24h-123.1c20.554 44.174 39.873 91.73 58.177 142.32h148.16c-26.292-50.79-53.993-98.392-83.238-142.32z" fill="#C59BF5"/> <path d="m3037.8 288.24h-117.54c30.048 43.907 58.53 91.512 85.568 142.32h141.47c-34.735-51.008-71.238-98.634-109.5-142.32z" fill="#3FD5C7"/> <path d="m4041.7 847.49h-127.54c46.196 69.574 89.24 142.2 129 217.42h139.18c-43.394-75.309-90.337-147.94-140.63-217.42z" fill="#018DF5"/> <path d="m355.72 1887h137.98c18.704-89.32 41.514-177.49 68.357-264.07h-133.28c-28.671 86.519-53.058 174.71-73.058 264.07z" fill="#038917"/> <path d="m1239.9 4554.6h81.084c-62.984-52.754-123.34-109.56-180.71-169.97h-93.512c61.4 60.484 125.91 117.28 193.14 169.97z" fill="#35B35B"/> <path d="m1468.9 4711.8h66.344c-67.786-43.153-133.39-90.735-196.4-142.32h-79.851c67.427 51.651 137.55 99.22 209.91 142.32z" fill="#A52105"/> <path d="m1029.3 4367.3h94.634c-57.242-61.57-111.46-126.77-162.37-195.13h-105.8c54.481 68.437 112.43 133.63 173.54 195.13z" fill="#C791E7"/> <path d="m675.67 3913.5h117.39c-43.309-76.334-82.973-155.33-118.84-236.52h-125.56c38.367 81.257 80.772 160.26 127.01 236.52z" fill="#FB279D"/> <path d="m840.3 4152.5h106.8c-50.65-69.469-97.933-142.1-141.65-217.42h-116.54c46.766 75.395 97.315 148.03 151.39 217.42z" fill="#992951"/> <path d="m1629.5 4711.8h90.959c-55.003-43.336-108-90.95-158.7-142.32h-109.48c56.74 51.484 115.93 99.083 177.21 142.32z" fill="#8B277D"/> <path d="m1729.6 4711.8h101.35c-47.362-43.48-92.818-91.106-136.2-142.32h-121.98c50.093 51.359 102.46 98.975 156.83 142.32z" fill="#FB008F"/> <path d="m1841.1 4711.8h110.25c-39.013-43.669-76.257-91.296-111.7-142.32h-132.7c42.716 51.201 87.485 98.828 134.15 142.32z" fill="#4BD995"/> <path d="m1542.2 4711.8h79.233c-61.842-43.23-121.58-90.828-178.86-142.32h-95.364c62.549 51.58 127.69 99.163 194.99 142.32z" fill="#A7E54F"/> <path d="m537.82 3653.7h126.26c-35.332-82.061-66.799-166.26-94.29-252.14h-132.74c29.402 85.934 63.043 170.14 100.77 252.14z" fill="#6767F3"/> <path d="m305.88 2184.6h141.18c9.6317-91.458 23.452-182.31 41.42-272.11h-138.34c-19.195 89.765-33.972 180.63-44.268 272.11z" fill="#7B3993"/> <path d="m428.78 3377.1h133.28c-26.843-86.572-49.653-174.75-68.357-264.07h-137.98c20 89.361 44.387 177.55 73.058 264.07z" fill="#F9D78D"/> <path d="m548.66 1323h125.56c35.867-81.186 75.532-160.18 118.84-236.51h-117.39c-46.241 76.258-88.646 155.26-127.01 236.51z" fill="#E38D79"/> <path d="m437.05 1598.4h132.74c27.492-85.878 58.958-170.08 94.291-252.14h-126.26c-37.732 81.995-71.374 166.21-100.78 252.14z" fill="#8945ED"/> <path d="m688.91 1064.9h116.54c43.712-75.317 90.996-147.95 141.65-217.42h-106.8c-54.072 69.391-104.62 142.02-151.39 217.42z" fill="#493F37"/> <path d="m1962.1 4711.8h117.54c-30.049-43.907-58.53-91.513-85.568-142.32h-141.47c34.735 51.008 71.239 98.634 109.5 142.32z" fill="#41374B"/> <path d="m303.07 2789.3h141.36c-8.8397-91.705-13.469-183.91-13.874-276.17h-142.32c0.4333 92.261 5.3829 184.48 14.829 276.17z" fill="#F743E1"/> <path d="m855.75 827.87h105.8c50.916-68.358 105.13-133.56 162.37-195.13h-94.634c-61.104 61.495-119.06 126.69-173.54 195.13z" fill="#1D6951"/> <path d="m350.14 3087.5h138.34c-17.968-89.802-31.788-180.66-41.42-272.12h-141.18c10.296 91.481 25.073 182.35 44.268 272.12z" fill="#B7A15F"/> <path d="m288.24 2486.9h142.32c0.4054-92.259 5.0348-184.46 13.874-276.17h-141.36c-9.4458 91.688-14.395 183.91-14.829 276.17z" fill="#C5FBDD"/> <path d="m3904 2210.7h-234.93c5.032 91.789 7.6604 183.92 7.8911 276.17h236.51c-0.2768-92.25-3.4345-184.4-9.4768-276.17z" fill="#016137"/> <path d="m3576.1 3401.6h-235.17c-11.928 85.521-25.604 169.64-41.08 252.14h223.68c19.787-82.43 37.295-166.56 52.568-252.14z" fill="#C11973"/> <path d="m2243.3 3653.7h245c-0.2256-82.626-0.4248-166.71-0.5984-252.14h-257.58c3.8235 85.439 8.209 169.53 13.181 252.14z" fill="#F901AD"/> <path d="m3043.8 3653.7h234.26c15.056-82.51 28.359-166.62 39.962-252.14h-246.3c-8.1051 85.472-17.4 169.57-27.93 252.14z" fill="#736357"/> <path d="m2511.6 3653.7h245c4.9727-82.613 9.3579-166.7 13.182-252.14h-257.58c-0.1736 85.429-0.3725 169.51-0.5984 252.14z" fill="#154761"/> <path d="m2779.8 3653.7h241.4c10.093-82.573 19.001-166.67 26.768-252.14h-253.8c-4.1685 85.441-8.949 169.53-14.37 252.14z" fill="#7D932F"/> <path d="m3618.5 3113h-244.44c-8.127 89.078-18.042 177.16-29.782 264.07h236.11c15.013-86.85 27.706-174.95 38.11-264.07z" fill="#47DBA1"/> <path d="m3621.4 1912.5h-245.08c7.8469 90.016 13.855 180.78 18.046 272.11h250.13c-5.3635-91.35-13.055-182.13-23.092-272.11z" fill="#D531C1"/> <path d="m3646 2210.7h-250.45c3.8555 91.806 5.8682 183.92 6.0449 276.17h252.14c-0.2257-92.247-2.8021-184.38-7.735-276.17z" fill="#E90D07"/> <path d="m3644.5 2815.4h-250.13c-4.1904 91.331-10.199 182.1-18.046 272.12h245.08c10.037-89.984 17.729-180.77 23.092-272.12z" fill="#E78155"/> <path d="m3653.7 2513.1h-252.14c-0.1768 92.245-2.1895 184.36-6.0449 276.17h250.45c4.9327-91.791 7.5091-183.92 7.735-276.17z" fill="#3129B3"/> <path d="m1423.9 1598.4h235.17c11.928-85.522 25.604-169.64 41.081-252.14h-223.69c-19.787 82.43-37.295 166.56-52.569 252.14z" fill="#19CFAF"/> <path d="m1355.4 2184.6h250.13c4.1904-91.33 10.199-182.1 18.046-272.11h-245.08c-10.037 89.983-17.729 180.76-23.092 272.11z" fill="#9F4559"/> <path d="m1346.2 2486.9h252.14c0.1766-92.245 2.1893-184.36 6.0448-276.17h-250.45c-4.9328 91.791-7.5092 183.92-7.7353 276.17z" fill="#AF1F61"/> <path d="m1978.8 3653.7h241.4c-5.4207-82.61-10.201-166.7-14.37-252.14h-253.8c7.7675 85.469 16.675 169.57 26.768 252.14z" fill="#A1EB57"/> <path d="m1381.4 1887h244.44c8.127-89.078 18.042-177.17 29.782-264.07h-236.12c-15.013 86.85-27.706 174.95-38.11 264.07z" fill="#8D7721"/> <path d="m1956.2 1346.3h-234.26c-15.056 82.51-28.36 166.62-39.962 252.14h246.3c8.1048-85.473 17.4-169.57 27.93-252.14z" fill="#933B2F"/> <path d="m3580.4 1622.9h-236.11c11.739 86.902 21.655 174.99 29.782 264.07h244.44c-10.404-89.115-23.097-177.22-38.11-264.07z" fill="#8721AF"/> <path d="m1378.5 3087.5h245.08c-7.8468-90.017-13.855-180.79-18.046-272.12h-250.13c5.3635 91.35 13.055 182.13 23.092 272.12z" fill="#E1CBA1"/> <path d="m1721.9 3653.7h234.26c-10.53-82.568-19.825-166.67-27.93-252.14h-246.3c11.602 85.516 24.906 169.63 39.962 252.14z" fill="#C5714D"/> <path d="m1476.4 3653.7h223.69c-15.476-82.503-29.152-166.62-41.08-252.14h-235.17c15.274 85.578 32.782 169.71 52.568 252.14z" fill="#51A3ED"/> <path d="m1419.5 3377.1h236.12c-11.739-86.902-21.655-174.99-29.782-264.07h-244.44c10.404 89.115 23.097 177.22 38.11 264.07z" fill="#CDE759"/> <path d="m1354 2789.3h250.45c-3.8555-91.806-5.8682-183.92-6.0448-276.17h-252.14c0.226 92.247 2.8024 184.38 7.7353 276.17z" fill="#6FA585"/> <path d="m1126 3087.5h229.89c-10.239-89.98-18.086-180.76-23.558-272.12h-234.62c6.5728 91.374 16 182.17 28.291 272.12z" fill="#414D73"/> <path d="m1096 2789.3h234.92c-5.0321-91.789-7.6605-183.92-7.8911-276.17h-236.51c0.2768 92.25 3.4345 184.4 9.4768 276.17z" fill="#F96BF9"/> <path d="m3523.5 1346.3h-223.68c15.477 82.504 29.153 166.62 41.081 252.14h235.17c-15.274-85.579-32.782-169.71-52.569-252.14z" fill="#AF436F"/> <path d="m1129.6 1887h229.29c10.614-89.119 23.563-177.22 38.878-264.07h-221.48c-18.379 86.784-33.937 174.9-46.69 264.07z" fill="#FB2DCD"/> <path d="m1097.8 2184.6h234.62c5.4717-91.352 13.318-182.13 23.557-272.11h-229.89c-12.292 89.941-21.718 180.74-28.291 272.11z" fill="#B1338F"/> <path d="m1334.1 3913.5h195.08c-24.774-76.776-47.287-155.71-67.59-236.52h-208.66c24.41 80.894 51.461 159.85 81.172 236.52z" fill="#6D7BCB"/> <path d="m1548.3 3913.5h207.97c-19.005-76.884-36.24-155.8-51.776-236.52h-222.45c19.901 80.798 41.967 159.73 66.256 236.52z" fill="#1153EF"/> <path d="m1181.6 1598.4h220.6c15.582-85.585 33.444-169.72 53.628-252.14h-209.82c-24.215 82.34-45.676 166.49-64.404 252.14z" fill="#5F53A9"/> <path d="m1246 3653.7h209.82c-20.183-82.422-38.045-166.56-53.627-252.14h-220.6c18.728 85.649 40.189 169.8 64.404 252.14z" fill="#C9FDE5"/> <path d="m1176.3 3377.1h221.48c-15.315-86.844-28.264-174.95-38.878-264.07h-229.29c12.753 89.162 28.311 177.28 46.691 264.07z" fill="#D1AB81"/> <path d="m1086.5 2486.9h236.51c0.2306-92.247 2.859-184.38 7.8911-276.17h-234.92c-6.0423 91.771-9.2 183.92-9.4768 276.17z" fill="#01DB25"/> <path d="m2738.6 1086.5h-227.79c0.2776 77.053 0.5283 155.93 0.7542 236.51h243.65c-4.978-80.601-10.504-159.48-16.614-236.51z" fill="#CDC15B"/> <path d="m3223.4 1086.5h-217.81c12.936 76.972 24.648 155.87 35.202 236.51h232.97c-15.112-80.712-31.877-159.62-50.366-236.51z" fill="#6305D1"/> <path d="m2984.5 1086.5h-224.45c6.6604 77.032 12.684 155.91 18.111 236.51h240.07c-10.114-80.644-21.339-159.54-33.738-236.51z" fill="#B561C9"/> <path d="m3451.6 1086.5h-207.97c19.005 76.884 36.24 155.8 51.776 236.51h222.45c-19.901-80.797-41.967-159.73-66.256-236.51z" fill="#3D81C1"/> <path d="m1252.9 1323h208.66c20.304-80.805 42.816-159.74 67.59-236.51h-195.08c-29.711 76.668-56.762 155.62-81.172 236.51z" fill="#678D59"/> <path d="m1756.3 1086.5h-207.97c-24.288 76.785-46.355 155.72-66.256 236.51h222.45c15.536-80.718 32.771-159.63 51.776-236.51z" fill="#5FA911"/> <path d="m1994.4 1086.5h-217.81c-18.489 76.892-35.254 155.8-50.366 236.51h232.97c10.554-80.649 22.266-159.54 35.202-236.51z" fill="#BBA71D"/> <path d="m2489.1 1086.5h-227.79c-6.1101 77.035-11.636 155.91-16.614 236.51h243.65c0.2257-80.587 0.4767-159.46 0.7541-236.51z" fill="#6BD759"/> <path d="m2239.8 1086.5h-224.45c-12.399 76.979-23.623 155.87-33.738 236.51h240.07c5.4267-80.603 11.45-159.48 18.111-236.51z" fill="#F3D121"/> <path d="m2789.3 2513.1h-276.17c-0.0027 92.242-0.032 184.34-0.0881 276.17h274.31c1.2372-91.827 1.8828-183.93 1.9396-276.17z" fill="#2F7F05"/> <path d="m1928.9 3087.5h264.5c-2.7461-90.062-4.8469-180.81-6.3123-272.12h-269.94c2.73 91.313 6.644 182.07 11.759 272.12z" fill="#8D5D03"/> <path d="m2204.6 1622.9h-254.82c-7.6537 86.95-14.112 175.02-19.406 264.07h263.81c2.841-89.026 6.3076-177.09 10.417-264.07z" fill="#3BEBD1"/> <path d="m3083.5 2210.7h-270.29c1.3489 91.826 2.0527 183.93 2.1145 276.17h272.11c-0.115-92.243-1.4263-184.35-3.9387-276.17z" fill="#EFC141"/> <path d="m2218.8 3087.5h268.44c-0.1145-90.069-0.2019-180.82-0.2629-272.12h-273.96c1.3442 91.303 3.2712 182.05 5.7905 272.12z" fill="#A53DBF"/> <path d="m2512.7 3087.5h268.44c2.519-90.064 4.446-180.81 5.7903-272.12h-273.96c-0.061 91.3-0.1486 182.05-0.2629 272.12z" fill="#9BF3BD"/> <path d="m3082.8 2815.4h-269.94c-1.4653 91.304-3.5662 182.05-6.3123 272.12h264.5c5.1147-90.047 9.0288-180.8 11.759-272.12z" fill="#953FF9"/> <path d="m2487.7 1622.9h-258.62c-3.77 86.977-6.95 175.04-9.5562 264.07h267.74c0.1184-89.018 0.2627-177.08 0.4338-264.07z" fill="#0145A5"/> <path d="m3071 1912.5h-264.5c2.7463 90.062 4.8469 180.81 6.3123 272.11h269.94c-2.73-91.313-6.6441-182.07-11.759-272.11z" fill="#0B4FA5"/> <path d="m2770.9 1622.9h-258.62c0.1711 86.986 0.3154 175.05 0.4338 264.07h267.74c-2.6062-89.025-5.7861-177.09-9.5562-264.07z" fill="#179981"/> <path d="m3050.1 1622.9h-254.82c4.1099 86.976 7.5764 175.04 10.418 264.07h263.81c-5.2937-89.044-11.752-177.12-19.406-264.07z" fill="#DD5B29"/> <path d="m3087.5 2513.1h-272.11c-0.0618 92.242-0.7656 184.34-2.1145 276.17h270.29c2.5124-91.819 3.8237-183.93 3.9387-276.17z" fill="#2D23A3"/> <path d="m1916.4 2789.3h270.29c-1.3491-91.826-2.0527-183.93-2.1145-276.17h-272.11c0.1149 92.243 1.4261 184.35 3.9388 276.17z" fill="#59892B"/> <path d="m1776.6 3913.5h217.81c-12.936-76.973-24.648-155.87-35.202-236.52h-232.97c15.112 80.712 31.877 159.62 50.366 236.52z" fill="#793BBB"/> <path d="m2210.7 2486.9h276.17c0.0024-92.242 0.0317-184.34 0.0881-276.17h-274.31c-1.2374 91.827-1.8829 183.93-1.9396 276.17z" fill="#EFF197"/> <path d="m2787.3 2210.7h-274.31c0.0562 91.829 0.0854 183.93 0.0881 276.17h276.17c-0.0567-92.242-0.7023-184.34-1.9396-276.17z" fill="#6BF343"/> <path d="m2212.6 2789.3h274.31c-0.0564-91.829-0.0857-183.93-0.0881-276.17h-276.17c0.0566 92.242 0.7021 184.34 1.9396 276.17z" fill="#47B3C3"/> <path d="m1917.2 2184.6h269.94c1.4653-91.304 3.5662-182.05 6.3123-272.11h-264.5c-5.1148 90.046-9.0288 180.8-11.759 272.11z" fill="#D985AD"/> <path d="m1912.5 2486.9h272.11c0.0618-92.242 0.7654-184.34 2.1145-276.17h-270.29c-2.5127 91.819-3.8239 183.93-3.9388 276.17z" fill="#279111"/> <path d="m2487.2 1912.5h-268.44c-2.5193 90.063-4.4463 180.81-5.7905 272.11h273.96c0.061-91.3 0.1484-182.05 0.2629-272.11z" fill="#39FB57"/> <path d="m2781.2 1912.5h-268.44c0.1143 90.068 0.2019 180.81 0.2629 272.11h273.96c-1.3443-91.303-3.2713-182.05-5.7903-272.11z" fill="#3FE1FB"/> <path d="m1629.9 2184.6h261.96c2.8485-91.314 6.9324-182.07 12.269-272.11h-256.67c-7.6333 90.019-13.478 180.79-17.554 272.11z" fill="#1B1464"/> <path d="m3371.1 2210.7h-262.29c2.6216 91.818 3.9897 183.93 4.1099 276.17h264.06c-0.1719-92.245-2.1297-184.36-5.8804-276.17z" fill="#033DF9"/> <path d="m3321.3 1622.9h-247.28c7.9854 86.947 14.725 175.02 20.248 264.07h256.01c-7.9053-89.075-17.551-177.16-28.971-264.07z" fill="#A9B583"/> <path d="m3352.5 1912.5h-256.67c5.3364 90.044 9.4204 180.8 12.269 272.11h261.96c-4.0764-91.329-9.9211-182.1-17.554-272.11z" fill="#B77F01"/> <path d="m3377 2513.1h-264.06c-0.1201 92.243-1.4883 184.35-4.1099 276.17h262.29c3.7507-91.807 5.7085-183.92 5.8804-276.17z" fill="#1943F3"/> <path d="m3370 2815.4h-261.96c-2.8484 91.314-6.9324 182.07-12.269 272.12h256.67c7.6332-90.02 13.478-180.79 17.554-272.12z" fill="#65C539"/> <path d="m3350.3 3113h-256.01c-5.5234 89.046-12.263 177.12-20.248 264.07h247.28c11.42-86.906 21.065-174.99 28.971-264.07z" fill="#2395BB"/> <path d="m2488.3 1346.3h-245c-4.9727 82.613-9.3582 166.7-13.182 252.14h257.58c0.1736-85.43 0.3728-169.52 0.5984-252.14z" fill="#CF1F4B"/> <path d="m2756.6 1346.3h-245c0.2258 82.626 0.4248 166.71 0.5984 252.14h257.58c-3.8237-85.44-8.2089-169.53-13.182-252.14z" fill="#7969A1"/> <path d="m3021.2 1346.3h-241.4c5.4204 82.611 10.201 166.7 14.37 252.14h253.8c-7.7675-85.469-16.675-169.57-26.768-252.14z" fill="#9D4F23"/> <path d="m3278 1346.3h-234.26c10.53 82.569 19.825 166.67 27.93 252.14h246.3c-11.602-85.517-24.906-169.63-39.962-252.14z" fill="#E7A7A5"/> <path d="m1949.8 3377.1h254.82c-4.1099-86.976-7.5764-175.04-10.418-264.07h-263.81c5.2936 89.044 11.752 177.12 19.406 264.07z" fill="#8FDB7F"/> <path d="m1647.5 3087.5h256.67c-5.3365-90.045-9.4205-180.8-12.269-272.12h-261.96c4.0763 91.329 9.921 182.1 17.554 272.12z" fill="#A7C1A5"/> <path d="m1628.8 2789.3h262.29c-2.6217-91.818-3.9897-183.93-4.1097-276.17h-264.06c0.1717 92.245 2.1296 184.36 5.8802 276.17z" fill="#2F8BFB"/> <path d="m1622.9 2486.9h264.06c0.12-92.243 1.488-184.35 4.1097-276.17h-262.29c-3.7506 91.807-5.7085 183.92-5.8802 276.17z" fill="#69A535"/> <path d="m2220.2 1346.3h-241.4c-10.093 82.573-19.001 166.67-26.768 252.14h253.8c4.1685-85.441 8.9493-169.53 14.37-252.14z" fill="#6D9DD9"/> <path d="m1678.7 3377.1h247.28c-7.9855-86.947-14.725-175.02-20.248-264.07h-256c7.9055 89.075 17.551 177.16 28.971 264.07z" fill="#D30D1D"/> <path d="m2229 3377.1h258.62c-0.1711-86.986-0.3154-175.05-0.4338-264.07h-267.74c2.6062 89.025 5.7861 177.09 9.5564 264.07z" fill="#0DFB37"/> <path d="m2512.3 3377.1h258.62c3.77-86.977 6.95-175.04 9.5562-264.07h-267.74c-0.1184 89.019-0.2627 177.08-0.4338 264.07z" fill="#05755F"/> <path d="m2795.3 3377.1h254.82c7.6536-86.95 14.112-175.02 19.406-264.07h-263.81c-2.8411 89.026-6.3077 177.09-10.418 264.07z" fill="#BB5B0D"/> <path d="m1649.7 1887h256c5.5234-89.046 12.263-177.12 20.248-264.07h-247.28c-11.42 86.906-21.066 174.99-28.971 264.07z" fill="#C5991D"/> <path d="m852.6 1323h172.15c28.915-81.002 60.935-159.97 96.024-236.51h-160.94c-39.132 76.44-74.904 155.42-107.23 236.51z" fill="#71A937"/> <path d="m4047.4 1622.9h-203.6c18.659 86.778 34.455 174.9 47.404 264.07h210.78c-14.918-89.214-33.115-177.35-54.585-264.07z" fill="#6B5705"/> <path d="m2015.4 3913.5h224.45c-6.6604-77.032-12.684-155.91-18.111-236.52h-240.07c10.114 80.644 21.339 159.54 33.738 236.52z" fill="#6919FD"/> <path d="m4106.2 1912.5h-211.33c12.479 89.937 22.05 180.74 28.723 272.11h215.68c-7.6865-91.401-18.712-182.22-33.075-272.11z" fill="#1BEB7D"/> <path d="m2282.9 4152.5h207.23c-0.3254-70.35-0.6243-142.86-0.8989-217.42h-226.14c6.0511 74.581 12.634 147.09 19.802 217.42z" fill="#2D91BF"/> <path d="m3267.1 632.75h-167.66c25.234 62.298 48.776 127.44 70.742 195.13h187.44c-28.164-67.82-58.316-132.99-90.525-195.13z" fill="#511D7F"/> <path d="m3598.8 632.75h-144.57c39.944 61.955 77.484 127.14 112.6 195.13h161.63c-40.513-68.114-83.767-133.31-129.66-195.13z" fill="#7D6511"/> <path d="m3439.9 632.75h-157.27c32.849 62.124 63.612 127.29 92.348 195.13h175.82c-34.581-67.971-71.554-133.16-110.91-195.13z" fill="#7BC5A3"/> <path d="m4139.3 2815.4h-215.68c-6.6733 91.377-16.244 182.18-28.723 272.12h211.33c14.363-89.896 25.389-180.71 33.075-272.12z" fill="#3333BD"/> <path d="m3740 847.49h-163.15c35.309 69.835 68.049 142.44 98.227 217.42h178.03c-34.801-75.093-72.523-147.71-113.11-217.42z" fill="#D55D7F"/> <path d="m3863 1086.5h-179.33c30.161 76.658 57.626 155.61 82.412 236.51h191.81c-28.573-80.994-60.216-159.96-94.897-236.51z" fill="#711F35"/> <path d="m4152.4 2513.1h-217.41c-0.281 92.25-3.4871 184.4-9.6213 276.17h215.96c7.0619-91.75 10.755-183.92 11.079-276.17z" fill="#BB213B"/> <path d="m2736.6 4152.5h204.19c14.54-70.246 27.914-142.78 40.212-217.42h-222.82c-6.5969 74.585-13.773 147.1-21.586 217.42z" fill="#893951"/> <path d="m3176.5 4152.5h189.2c28.45-69.992 54.752-142.57 78.97-217.42h-206.46c-18.899 74.742-39.439 147.3-61.712 217.42z" fill="#43E55F"/> <path d="m4102 3113h-210.78c-12.948 89.167-28.745 177.29-47.404 264.07h203.6c21.47-86.714 39.667-174.85 54.586-264.07z" fill="#592FFB"/> <path d="m2509.8 4152.5h207.23c7.1677-70.324 13.75-142.84 19.802-217.42h-226.14c-0.2747 74.562-0.5736 147.07-0.899 217.42z" fill="#00f"/> <path d="m2959.9 4152.5h198.15c21.67-70.13 41.649-142.68 60.032-217.42h-216.23c-12.833 74.648-26.788 147.18-41.957 217.42z" fill="#DD3BD7"/> <path d="m3383.2 4152.5h177.48c34.784-69.847 67.03-142.45 96.749-217.42h-193.67c-24.71 74.857-51.543 147.44-80.561 217.42z" fill="#FDC3DF"/> <path d="m4041.3 3401.6h-202.79c-19.015 85.656-40.805 169.81-65.387 252.14h192.88c28.277-82.245 53.38-166.41 75.293-252.14z" fill="#73B125"/> <path d="m3957.9 3677h-191.81c-24.786 80.903-52.251 159.86-82.412 236.52h179.33c34.682-76.551 66.324-155.52 94.898-236.52z" fill="#CDBB5B"/> <path d="m3853.1 3935.1h-178.03c-30.178 74.981-62.918 147.58-98.227 217.42h163.15c40.585-69.709 78.307-142.32 113.11-217.42z" fill="#A77FCF"/> <path d="m4141.4 2210.7h-215.96c6.1343 91.769 9.3403 183.92 9.6213 276.17h217.41c-0.3236-92.253-4.017-184.42-11.079-276.17z" fill="#1D6113"/> <path d="m632.74 2486.9h195.12c0.3276-92.253 4.0649-184.42 11.211-276.17h-193.82c-7.9781 91.728-12.153 183.91-12.519 276.17z" fill="#FB41BD"/> <path d="m689.71 1887h189.17c15.096-89.218 33.51-177.36 55.233-264.07h-182.72c-24.24 86.644-44.812 174.8-61.678 264.07z" fill="#F5616B"/> <path d="m647.63 2184.6h193.57c7.7779-91.404 18.935-182.22 33.468-272.11h-189.66c-16.221 89.849-28.685 180.69-37.373 272.11z" fill="#B5457B"/> <path d="m959.83 3913.5h160.94c-35.089-76.541-67.109-155.51-96.024-236.52h-172.15c32.325 81.091 68.098 160.08 107.23 236.52z" fill="#F73BA5"/> <path d="m758.37 1598.4h182c22.176-85.733 47.578-169.9 76.188-252.14h-173.1c-31.916 82.153-60.295 166.34-85.079 252.14z" fill="#F5EB07"/> <path d="m843.45 3653.7h173.1c-28.61-82.236-54.012-166.41-76.187-252.14h-182c24.783 85.801 53.162 169.99 85.078 252.14z" fill="#B77579"/> <path d="m751.39 3377.1h182.72c-21.723-86.708-40.137-174.85-55.233-264.07h-189.17c16.867 89.266 37.438 177.42 61.679 264.07z" fill="#07C981"/> <path d="m971 1064.9h159.78c35.22-75.103 73.391-147.72 114.45-217.42h-146.42c-45.777 69.584-88.423 142.21-127.81 217.42z" fill="#9B655B"/> <path d="m645.26 2789.3h193.82c-7.1459-91.748-10.883-183.92-11.211-276.17h-195.12c0.3658 92.256 4.5409 184.44 12.519 276.17z" fill="#651517"/> <path d="m685 3087.5h189.66c-14.533-89.892-25.69-180.71-33.468-272.12h-193.57c8.6878 91.429 21.152 182.27 37.373 272.12z" fill="#3FABDF"/> <path d="m1111.9 827.87h145.06c41.001-68.125 84.77-133.32 131.2-195.13h-129.75c-51.746 61.685-100.64 126.89-146.51 195.13z" fill="#A17BA1"/> <path d="m3083.2 632.75h-175.59c17.2 62.456 33.19 127.57 48.096 195.13h196.31c-21.364-67.675-44.263-132.81-68.815-195.13z" fill="#CD2FB1"/> <path d="m2692.3 632.75h-183.64c0.3696 62.613 0.7117 127.69 1.0305 195.13h205.3c-7.0253-67.469-14.566-132.55-22.699-195.13z" fill="#63519F"/> <path d="m2491.2 632.75h-183.64c-8.1333 62.576-15.674 127.66-22.7 195.13h205.3c0.3189-67.441 0.6611-132.51 1.0305-195.13z" fill="#9583BD"/> <path d="m2890.6 632.75h-180.94c8.8652 62.57 17.086 127.65 24.745 195.13h202.29c-14.284-67.552-29.608-132.66-46.096-195.13z" fill="#DDB7A1"/> <path d="m2290.3 632.75h-180.94c-16.488 62.468-31.812 127.57-46.096 195.13h202.29c7.6592-67.474 15.88-132.56 24.745-195.13z" fill="#6B4591"/> <path d="m1545.7 632.75h-144.57c-45.892 61.815-89.146 127.01-129.66 195.13h161.63c35.115-67.984 72.656-133.17 112.6-195.13z" fill="#29575D"/> <path d="m1717.3 632.75h-157.27c-39.352 61.969-76.325 127.16-110.91 195.13h175.82c28.736-67.834 59.499-133 92.348-195.13z" fill="#3F51C1"/> <path d="m2092.4 632.75h-175.59c-24.553 62.313-47.452 127.45-68.815 195.13h196.31c14.906-67.561 30.897-132.67 48.096-195.13z" fill="#0FE77D"/> <path d="m1900.5 632.75h-167.66c-32.209 62.139-62.362 127.31-90.525 195.13h187.44c21.965-67.687 45.508-132.83 70.742-195.13z" fill="#73813D"/> <path d="m3966 1346.3h-192.88c24.582 82.331 46.372 166.48 65.388 252.14h202.79c-21.914-85.726-47.017-169.9-75.294-252.14z" fill="#392B43"/> <path d="m3913.4 2513.1h-236.51c-0.2307 92.247-2.8591 184.38-7.8911 276.17h234.93c6.0423-91.771 9.2-183.92 9.4768-276.17z" fill="#7F111F"/> <path d="m3823.6 1622.9h-221.48c15.315 86.844 28.264 174.95 38.878 264.07h229.3c-12.753-89.163-28.311-177.28-46.69-264.07z" fill="#7FFDB7"/> <path d="m3665.8 1086.5h-195.08c24.774 76.775 47.286 155.71 67.59 236.51h208.66c-24.41-80.894-51.461-159.85-81.172-236.51z" fill="#BD5553"/> <path d="m2059.1 4152.5h204.19c-7.8135-70.319-14.99-142.83-21.587-217.42h-222.82c12.298 74.641 25.672 147.17 40.212 217.42z" fill="#538385"/> <path d="m3873.9 1912.5h-229.89c10.239 89.98 18.086 180.76 23.557 272.11h234.63c-6.5728-91.374-16-182.17-28.291-272.11z" fill="#1DCD15"/> <path d="m3753.9 1346.3h-209.82c20.184 82.423 38.045 166.56 53.628 252.14h220.6c-18.728-85.65-40.189-169.8-64.404-252.14z" fill="#97FB2B"/> <path d="m3158.1 847.49h-198.15c15.169 70.238 29.124 142.77 41.957 217.42h216.23c-18.382-74.733-38.361-147.29-60.032-217.42z" fill="#2F6123"/> <path d="m2940.8 847.49h-204.19c7.8132 70.319 14.99 142.83 21.586 217.42h222.82c-12.298-74.641-25.672-147.17-40.212-217.42z" fill="#FD69DB"/> <path d="m3560.6 847.49h-177.48c29.018 69.979 55.851 142.56 80.56 217.42h193.67c-29.719-74.97-61.966-147.57-96.749-217.42z" fill="#19C9D7"/> <path d="m3365.7 847.49h-189.2c22.273 70.118 42.813 142.67 61.712 217.42h206.46c-24.218-74.847-50.52-147.42-78.97-217.42z" fill="#734337"/> <path d="m2510.8 3913.5h227.79c6.1104-77.035 11.636-155.91 16.614-236.52h-243.65c-0.2258 80.588-0.4766 159.46-0.7542 236.52z" fill="#A67C52"/> <path d="m3005.6 3913.5h217.81c18.489-76.893 35.254-155.8 50.366-236.52h-232.97c-10.554 80.65-22.266 159.54-35.202 236.52z" fill="#119DAF"/> <path d="m2717.1 847.49h-207.23c0.3254 70.35 0.6243 142.86 0.8989 217.42h226.14c-6.0512-74.581-12.634-147.09-19.802-217.42z" fill="#F32D97"/> <path d="m2760.1 3913.5h224.45c12.399-76.98 23.624-155.87 33.738-236.52h-240.07c-5.427 80.604-11.45 159.48-18.111 236.52z" fill="#7F5D2B"/> <path d="m2261.3 3913.5h227.79c-0.2773-77.054-0.5283-155.93-0.7542-236.52h-243.65c4.978 80.601 10.504 159.48 16.614 236.52z" fill="#BDD509"/> <path d="m3902.2 2815.4h-234.63c-5.4717 91.352-13.318 182.14-23.558 272.12h229.89c12.292-89.942 21.718-180.74 28.292-272.12z" fill="#59E923"/> <path d="m3818.3 3401.6h-220.6c-15.582 85.584-33.444 169.72-53.627 252.14h209.82c24.215-82.339 45.676-166.49 64.404-252.14z" fill="#F1896F"/> <path d="m3870.3 3113h-229.3c-10.614 89.119-23.563 177.22-38.878 264.07h221.48c18.379-86.784 33.937-174.9 46.69-264.07z" fill="#A72591"/> <path d="m3243.6 3913.5h207.97c24.289-76.786 46.355-155.72 66.256-236.52h-222.45c-15.537 80.719-32.772 159.63-51.776 236.52z" fill="#95E573"/> <path d="m3747 3677h-208.66c-20.304 80.806-42.816 159.74-67.59 236.52h195.08c29.711-76.668 56.762-155.62 81.172-236.52z" fill="#332B61"/> <path d="m2081.3 163.54h-84.137c-49.262 33.17-96.997 70.897-142.9 112.58h108.05c38.061-41.512 77.779-79.26 118.99-112.58z" fill="#51BD23"/> <path d="m952.49 3377.1h203.6c-18.659-86.778-34.455-174.9-47.404-264.07h-210.78c14.918 89.214 33.116 177.35 54.585 264.07z" fill="#83491B"/> <path d="m847.48 2486.9h217.41c0.2811-92.25 3.4872-184.4 9.6216-276.17h-215.96c-7.0623 91.75-10.756 183.92-11.079 276.17z" fill="#FDAF3B"/> <path d="m1034 3653.7h192.88c-24.582-82.331-46.372-166.48-65.387-252.14h-202.79c21.914 85.725 47.017 169.89 75.294 252.14z" fill="#E7514F"/> <path d="m893.74 3087.5h211.33c-12.479-89.938-22.05-180.74-28.723-272.12h-215.68c7.6864 91.402 18.712 182.22 33.075 272.12z" fill="#8FF31D"/> <path d="m858.56 2789.3h215.96c-6.1344-91.769-9.3405-183.92-9.6216-276.17h-217.41c0.3238 92.253 4.017 184.42 11.079 276.17z" fill="#D957D5"/> <path d="m1137 3913.5h179.33c-30.161-76.658-57.626-155.61-82.412-236.52h-191.81c28.573 80.994 60.216 159.96 94.898 236.52z" fill="#4B65F1"/> <path d="m1634.2 4152.5h189.2c-22.273-70.118-42.813-142.67-61.712-217.42h-206.46c24.218 74.847 50.52 147.43 78.97 217.42z" fill="#1F0385"/> <path d="m1260 4152.5h163.15c-35.309-69.835-68.049-142.44-98.227-217.42h-178.03c34.801 75.093 72.524 147.71 113.11 217.42z" fill="#53D5DB"/> <path d="m1841.8 4152.5h198.15c-15.169-70.238-29.124-142.77-41.957-217.42h-216.22c18.382 74.733 38.361 147.29 60.032 217.42z" fill="#6B97B7"/> <path d="m2490.1 847.49h-207.23c-7.168 70.324-13.751 142.84-19.802 217.42h226.14c0.2747-74.562 0.5736-147.07 0.899-217.42z" fill="#4995A5"/> <path d="m1439.3 4152.5h177.48c-29.018-69.979-55.851-142.56-80.561-217.42h-193.66c29.719 74.97 61.966 147.57 96.749 217.42z" fill="#6D81C7"/> <path d="m1616.8 847.49h-177.48c-34.784 69.847-67.03 142.45-96.749 217.42h193.66c24.709-74.857 51.542-147.44 80.561-217.42z" fill="#9BB7D5"/> <path d="m2040 847.49h-198.15c-21.67 70.13-41.649 142.68-60.032 217.42h216.22c12.833-74.648 26.788-147.18 41.957-217.42z" fill="#BB8BB7"/> <path d="m860.66 2184.6h215.68c6.6733-91.376 16.244-182.18 28.723-272.11h-211.33c-14.363 89.896-25.388 180.71-33.075 272.11z" fill="#B3118B"/> <path d="m2263.3 847.49h-204.19c-14.54 70.246-27.914 142.78-40.212 217.42h222.82c6.597-74.585 13.773-147.1 21.587-217.42z" fill="#29E1FB"/> <path d="m1823.4 847.49h-189.2c-28.45 69.992-54.752 142.57-78.97 217.42h206.46c18.899-74.742 39.439-147.3 61.712-217.42z" fill="#733385"/> <path d="m958.67 1598.4h202.79c19.015-85.657 40.805-169.81 65.388-252.14h-192.88c-28.277 82.245-53.38 166.42-75.294 252.14z" fill="#EF0D25"/> <path d="m1146.8 1064.9h178.03c30.178-74.981 62.918-147.58 98.227-217.42h-163.15c-40.585 69.709-78.307 142.32-113.11 217.42z" fill="#47F9CB"/> <path d="m897.9 1887h210.78c12.949-89.167 28.745-177.29 47.403-264.07h-203.6c-21.47 86.714-39.667 174.85-54.585 264.07z" fill="#4DAB91"/> <path d="m1042.1 1323h191.81c24.786-80.902 52.251-159.86 82.412-236.51h-179.33c-34.682 76.55-66.324 155.52-94.897 236.51z" fill="#2D33DF"/> <path d="m1107.6 430.56h27.272c74.299-51.739 151.44-99.288 230.91-142.32h-22.658c-81.037 43.02-159.71 90.564-235.52 142.32z" fill="#3721A1"/> <path d="m4823.9 1622.9h-45.518c31.508 86.432 58.35 174.64 80.368 264.07h47.124c-22.461-89.444-49.843-177.65-81.973-264.07z" fill="#0D21D5"/> <path d="m4964.9 2210.7h-48.281c10.387 91.658 15.835 183.9 16.312 276.17h48.607c-0.4863-92.266-6.0439-184.52-16.638-276.17z" fill="#41F3D3"/> <path d="m3913.8 445.41h-27.693c73.83 52.597 144.8 109.38 212.47 169.97h31.938c-69.039-60.613-141.43-117.39-216.71-169.97z" fill="#03674B"/> <path d="m4961.8 2815.4h-48.219c-11.332 91.518-27.596 182.41-48.698 272.12h47.247c21.52-89.691 38.111-180.59 49.67-272.12z" fill="#B72BAB"/> <path d="m4981.6 2513.1h-48.607c-0.4766 92.265-5.9248 184.51-16.312 276.17h48.281c10.594-91.651 16.152-183.9 16.638-276.17z" fill="#8D23F1"/> <path d="m4912.1 1912.5h-47.246c21.102 89.704 37.366 180.6 48.697 272.11h48.219c-11.559-91.526-28.15-182.42-49.67-272.11z" fill="#951D09"/> <path d="m4150.1 632.75h-32.321c67.099 61.387 130.87 126.57 190.9 195.13h36.135c-61.256-68.579-126.3-133.76-194.71-195.13z" fill="#2B2915"/> <path d="m4362.2 847.49h-36.474c59.381 69.274 115.01 141.9 166.53 217.42h39.801c-52.574-75.539-109.31-148.17-169.86-217.42z" fill="#1B7BA3"/> <path d="m2768.9 4981.7h13.616c85.628-11.168 170.68-27.414 254.56-48.607h-25.882c-79.797 21.184-160.77 37.436-242.29 48.607z" fill="#1B63D1"/> <path d="m4546.9 1086.5h-40.092c50.79 76.141 97.458 155.15 139.72 236.51h42.884c-43.12-81.391-90.725-160.4-142.51-236.51z" fill="#396D7F"/> <path d="m4905.9 3113h-47.124c-22.018 89.428-48.86 177.63-80.368 264.07h45.518c32.13-86.413 59.512-174.62 81.973-264.07z" fill="#69D1CF"/> <path d="m3633.7 4723.9h-22.205c-79.848 42.129-162.02 79.743-245.97 112.58h17.292c85.604-32.831 169.41-70.44 250.88-112.58z" fill="#A38761"/> <path d="m3358.4 4845.7h-16.813c-84.228 31.9-170.22 59.027-257.41 81.191h11.671c88.916-22.16 176.62-49.283 262.56-81.191z" fill="#A32155"/> <path d="m2783.6 4981.7h9.8191c88.924-11.166 177.26-27.406 264.41-48.607h-18.665c-84.21 21.195-169.6 37.44-255.56 48.607z" fill="#036F57"/> <path d="m3070.5 4933h-11.174c-87.374 21.202-175.93 37.442-265.08 48.607h5.8784c90.921-11.165 181.24-27.402 270.38-48.607z" fill="#B38BB3"/> <path d="m3892.3 4569.4h-27.272c-74.3 51.739-151.44 99.288-230.91 142.32h22.658c81.038-43.02 159.71-90.565 235.52-142.32z" fill="#032D0D"/> <path d="m4532 3935.1h-39.801c-51.526 75.513-107.15 148.14-166.53 217.42h36.474c60.546-69.249 117.29-141.88 169.86-217.42z" fill="#F58BF5"/> <path d="m4689.4 3677h-42.884c-42.263 81.367-88.931 160.37-139.72 236.52h40.092c51.788-76.116 99.393-155.12 142.51-236.52z" fill="#CFDFF1"/> <path d="m4814.6 3401.6h-45.336c-32.378 86.027-69.404 170.25-110.86 252.14h43.122c42.268-81.865 80.038-166.09 113.07-252.14z" fill="#79A121"/> <path d="m4130.5 4384.6h-31.938c-67.663 60.591-138.64 117.38-212.47 169.97h27.693c75.279-52.579 147.67-109.36 216.71-169.97z" fill="#97D9D5"/> <path d="m4344.8 4172.1h-36.135c-60.034 68.554-123.8 133.74-190.9 195.13h32.321c68.415-61.364 133.46-126.55 194.71-195.13z" fill="#01D9D1"/> <path d="m4701.5 1346.3h-43.122c41.453 81.889 78.48 166.11 110.86 252.14h45.336c-33.033-86.049-70.804-170.28-113.07-252.14z" fill="#1797A3"/> <path d="m2500 0c11.762 0.0052 24.064 5.8088 34.85 15.31h30.069c-20.977-9.9196-43.173-15.305-64.919-15.31z" fill="#632B33"/> <path d="m2500 0c22.684 0.0051 45.805 5.3706 67.737 15.31h29.18c-31.778-10.066-64.508-15.305-96.916-15.31z" fill="#0FA547"/> <path d="m2500 0c1.77 0.0187 1.0491 6.8042 1.4512 15.31h30.517c-9.8191-9.429-21.158-15.305-31.968-15.31z" fill="#0BE1DB"/> <path d="m2500 0c52.983 0.0051 106.13 5.1571 158.58 15.31h24.025c-60.473-10.167-121.6-15.305-182.6-15.31z" fill="#012BE1"/> <path d="m2500 0c33.314 0.0051 66.938 5.237 99.629 15.31h27.862c-42.043-10.124-84.883-15.305-127.49-15.31z" fill="#2FD73F"/> <path d="m2500 0c43.465 0.0051 87.156 5.1833 130.06 15.31h26.136c-51.649-10.151-104.01-15.305-156.19-15.31z" fill="#5167CB"/> <path d="m2500 0c-32.409 0.0051-65.138 5.2441-96.916 15.31h29.18c21.931-9.9395 45.053-15.305 67.737-15.31z" fill="#0701C5"/> <path d="m2500 0c-42.608 0.0051-85.448 5.1865-127.49 15.31h27.862c32.691-10.073 66.315-15.305 99.629-15.31z" fill="#9F738B"/> <path d="m2500 0c-10.81 0.0052-22.15 5.8811-31.968 15.31h30.517c0.4021-8.5059-0.3189-15.291 1.4514-15.31z" fill="#F7355B"/> <path d="m2500 0c-21.746 0.0051-43.942 5.3905-64.919 15.31h30.069c10.786-9.5013 23.088-15.305 34.85-15.31z" fill="#D19F29"/> <path d="m3382.8 163.54h-17.292c83.95 32.839 166.12 70.453 245.97 112.58h22.206c-81.468-42.142-165.28-79.752-250.88-112.58z" fill="#BB45AF"/> <path d="m2800.1 18.35h-5.8784c89.148 11.165 177.71 27.406 265.08 48.607h11.174c-89.133-21.205-179.45-37.443-270.37-48.607z" fill="#C737DB"/> <path d="m3095.8 73.13h-11.671c87.19 22.164 173.19 49.291 257.41 81.191h16.813c-85.931-31.908-173.64-59.031-262.56-81.191z" fill="#B5459B"/> <path d="m2500 0c89.797 0.0051 179.62 5.1205 268.86 15.31h5.3711c-91.028-10.19-182.64-15.305-274.23-15.31z" fill="#839995"/> <path d="m3656.8 288.24h-22.659c79.475 43.034 156.61 90.582 230.91 142.32h27.272c-75.809-51.757-154.49-99.301-235.52-142.32z" fill="#13E5D7"/> <path d="m2500 0c61.726 0.0051 123.58 5.1425 184.77 15.31h21.562c-68.394-10.176-137.41-15.305-206.33-15.31z" fill="#816115"/> <path d="m2500 0c86.574 0.0051 173.18 5.122 259.2 15.31h8.9719c-89.011-10.19-178.6-15.305-268.17-15.31z" fill="#F5B57B"/> <path d="m2500 0c76.383 0.0051 152.83 5.1281 228.68 15.31h15.727c-81.089-10.185-162.77-15.305-244.4-15.31z" fill="#87A14B"/> <path d="m2500 0c69.565 0.0051 139.22 5.1337 208.25 15.31h18.782c-75.298-10.182-151.2-15.305-227.04-15.31z" fill="#53F55D"/> <path d="m2500 0c82.081 0.0051 164.21 5.1244 245.74 15.31h12.44c-85.682-10.188-171.95-15.305-258.18-15.31z" fill="#D19B0B"/> <path d="m34.988 2789.3h48.28c-10.388-91.658-15.836-183.9-16.312-276.17h-48.606c0.4862 92.266 6.0439 184.52 16.638 276.17z" fill="#3579ED"/> <path d="m298.39 3653.7h43.121c-41.453-81.889-78.479-166.11-110.86-252.14h-45.336c33.033 86.048 70.803 170.27 113.07 252.14z" fill="#AB4D93"/> <path d="m453.06 3913.5h40.092c-50.79-76.142-97.458-155.15-139.72-236.52h-42.883c43.12 81.391 90.725 160.4 142.51 236.52z" fill="#998583"/> <path d="m637.78 4152.5h36.474c-59.381-69.274-115.01-141.9-166.53-217.42h-39.801c52.574 75.539 109.31 148.17 169.86 217.42z" fill="#79CD43"/> <path d="m87.812 3087.5h47.246c-21.102-89.705-37.366-180.6-48.698-272.12h-48.219c11.559 91.527 28.15 182.42 49.67 272.12z" fill="#59F399"/> <path d="m176.05 3377.1h45.518c-31.508-86.433-58.35-174.64-80.368-264.07h-47.123c22.461 89.444 49.843 177.65 81.973 264.07z" fill="#1BB793"/> <path d="m849.83 4367.3h32.321c-67.099-61.387-130.87-126.57-190.9-195.13h-36.134c61.256 68.579 126.3 133.76 194.71 195.13z" fill="#136D61"/> <path d="m1343.1 4711.8h22.658c-79.475-43.034-156.61-90.582-230.91-142.32h-27.272c75.81 51.757 154.49 99.301 235.52 142.32z" fill="#1D670D"/> <path d="m2500 0c-52.187 0.0051-104.54 5.1587-156.19 15.31h26.135c42.903-10.127 86.594-15.305 130.06-15.31z" fill="#B5F1F3"/> <path d="m1617.1 4836.5h17.291c-83.949-32.839-166.12-70.453-245.97-112.58h-22.205c81.467 42.142 165.27 79.751 250.88 112.58z" fill="#F3C13F"/> <path d="m1086.1 4554.6h27.693c-73.83-52.597-144.8-109.38-212.47-169.97h-31.937c69.039 60.613 141.43 117.39 216.71 169.97z" fill="#C34327"/> <path d="m1904.1 4926.9h11.67c-87.19-22.164-173.18-49.291-257.41-81.191h-16.813c85.931 31.908 173.64 59.031 262.56 81.191z" fill="#811B6B"/> <path d="m467.92 1064.9h39.801c51.526-75.513 107.15-148.14 166.53-217.42h-36.474c-60.546 69.249-117.29 141.88-169.86 217.42z" fill="#CD89EF"/> <path d="m655.11 827.87h36.134c60.034-68.554 123.8-133.74 190.9-195.13h-32.321c-68.415 61.364-133.46 126.55-194.71 195.13z" fill="#A91F01"/> <path d="m18.35 2486.9h48.606c0.4767-92.265 5.9248-184.51 16.312-276.17h-48.28c-10.594 91.651-16.152 183.9-16.638 276.17z" fill="#D7855D"/> <path d="m1366.3 276.12h22.205c79.849-42.129 162.02-79.743 245.97-112.58h-17.291c-85.605 32.831-169.41 70.441-250.88 112.58z" fill="#AD2D87"/> <path d="m869.39 615.39h31.937c67.663-60.591 138.64-117.38 212.47-169.97h-27.693c-75.279 52.578-147.67 109.36-216.71 169.97z" fill="#DBE37D"/> <path d="m94.072 1887h47.123c22.017-89.429 48.86-177.63 80.368-264.07h-45.518c-32.13 86.413-59.512 174.62-81.973 264.07z" fill="#E76769"/> <path d="m38.141 2184.6h48.219c11.331-91.518 27.596-182.41 48.697-272.11h-47.246c-21.52 89.69-38.111 180.59-49.67 272.11z" fill="#B76BDF"/> <path d="m310.55 1323h42.883c42.263-81.366 88.93-160.37 139.72-236.51h-40.092c-51.788 76.116-99.392 155.12-142.51 236.51z" fill="#DF8387"/> <path d="m185.32 1598.4h45.336c32.378-86.028 69.405-170.25 110.86-252.14h-43.121c-42.269 81.866-80.04 166.09-113.07 252.14z" fill="#61CDF1"/> <path d="m2393.9 4981.7h31.936c-23.126-11.496-45.528-28.134-66.785-48.607h-60.706c30.85 20.767 62.935 37.274 95.556 48.607z" fill="#7BB7C3"/> <path d="m2538.1 4981.7h32.909c22.211-11.521 43.671-28.17 64.007-48.607h-62.556c-10.657 19.951-21.948 36.614-34.36 48.607z" fill="#B1F199"/> <path d="m2574.1 4981.7h31.936c32.62-11.334 64.705-27.841 95.556-48.607h-60.706c-21.258 20.474-43.66 37.111-66.786 48.607z" fill="#5D1FF9"/> <path d="m2609 4981.7h30.493c42.619-11.256 84.77-27.663 125.7-48.607h-57.964c-31.744 20.787-64.725 37.283-98.23 48.607z" fill="#374193"/> <path d="m2465 4981.7h33.399c-0.5537-12.844-0.9961-29.056-1.4309-48.607h-63.488c9.7517 19.9 20.064 36.54 31.52 48.607z" fill="#F5DB7F"/> <path d="m2501.6 4981.7h33.399c11.456-12.067 21.768-28.708 31.52-48.607h-63.488c-0.4351 19.551-0.8775 35.763-1.4309 48.607z" fill="#F1B539"/> <path d="m2673.5 4981.7h26.294c60.723-11.197 120.97-27.503 180.04-48.607h-49.981c-51.17 21.051-103.53 37.391-156.35 48.607z" fill="#F7E7AF"/> <path d="m2727.9 4981.7h20.556c75.357-11.177 150.19-27.441 223.85-48.607h-39.074c-67.498 21.144-136.16 37.423-205.33 48.607z" fill="#3719D5"/> <path d="m2642.3 4981.7h28.604c52.038-11.219 103.62-27.562 154-48.607h-54.372c-41.777 20.956-84.772 37.355-128.23 48.607z" fill="#172DC5"/> <path d="m2702.2 4981.7h23.598c68.536-11.185 136.57-27.465 203.44-48.607h-44.857c-59.785 21.108-120.74 37.411-182.18 48.607z" fill="#432D01"/> <path d="m2428.9 4981.7h32.909c-12.412-11.993-23.703-28.657-34.36-48.607h-62.556c20.337 20.437 41.796 37.086 64.008 48.607z" fill="#D7679B"/> <path d="m2360.4 4981.7h30.493c-33.505-11.324-66.486-27.821-98.23-48.607h-57.964c40.931 20.945 83.082 37.351 125.7 48.607z" fill="#D7D5CF"/> <path d="m2217.4 4981.7h13.616c-81.525-11.171-162.49-27.423-242.29-48.607h-25.882c83.876 21.194 168.93 37.439 254.56 48.607z" fill="#914161"/> <path d="m2251.5 4981.7h20.556c-69.168-11.184-137.83-27.463-205.33-48.607h-39.074c73.662 21.166 148.49 37.431 223.85 48.607z" fill="#EF4B51"/> <path d="m2750.2 4981.7h17.212c81.083-11.171 161.61-27.424 240.97-48.607h-32.718c-74.2 21.168-149.57 37.431-225.46 48.607z" fill="#CBDD4B"/> <path d="m2206.5 4981.7h9.8191c-85.964-11.168-171.35-27.413-255.56-48.607h-18.665c87.15 21.201 175.48 37.442 264.41 48.607z" fill="#11911B"/> <path d="m2232.5 4981.7h17.212c-75.898-11.176-151.26-27.439-225.47-48.607h-32.718c79.358 21.183 159.89 37.436 240.97 48.607z" fill="#F187B3"/> <path d="m2329 4981.7h28.604c-43.46-11.252-86.456-27.652-128.23-48.607h-54.372c50.386 21.045 101.96 37.389 154 48.607z" fill="#B5451D"/> <path d="m2199.8 4981.7h5.8787c-89.149-11.166-177.71-27.406-265.08-48.607h-11.174c89.134 21.205 179.45 37.443 270.38 48.607z" fill="#ED0F3B"/> <path d="m2300.1 4981.7h26.294c-52.822-11.216-105.18-27.556-156.35-48.607h-49.981c59.072 21.104 119.32 37.41 180.04 48.607z" fill="#C711C1"/> <path d="m2274.1 4981.7h23.598c-61.436-11.196-122.39-27.499-182.18-48.607h-44.857c66.868 21.142 134.9 37.423 203.44 48.607z" fill="#7DA75B"/> <path d="m1097.3 430.56h8.5898c75.904-51.758 154.68-99.302 235.81-142.32h-7.1368c-81.627 43.015-160.89 90.558-237.26 142.32z" fill="#5733D3"/> <path d="m2500 5e3c75.835-0.0049 151.74-5.1284 227.04-15.31h-18.782c-69.034 10.176-138.69 15.305-208.25 15.31z" fill="#0B1BF3"/> <path d="m2500 5e3c89.57-0.0049 179.16-5.1206 268.17-15.31h-8.9719c-86.021 10.188-172.63 15.305-259.2 15.31z" fill="#5F5F27"/> <path d="m2776.2 4984.7h-1.6917c-91.14 10.19-182.86 15.305-274.56 15.31 92.268-0.0049 184.55-5.1196 276.25-15.31z" fill="#699777"/> <path d="m2500 5e3c81.634-0.0049 163.31-5.1245 244.4-15.31h-15.727c-75.845 10.182-152.29 15.305-228.68 15.31z" fill="#47B1DF"/> <path d="m2500 5e3c86.234-0.0049 172.5-5.1221 258.18-15.31h-12.44c-81.535 10.186-163.66 15.305-245.74 15.31z" fill="#F54D5B"/> <path d="m2500 5e3c91.591-0.0049 183.2-5.1196 274.23-15.31h-5.3711c-89.238 10.19-179.06 15.305-268.86 15.31z" fill="#3FF34B"/> <path d="m3902.6 4569.4h-8.5898c-75.904 51.758-154.68 99.302-235.81 142.32h7.137c81.627-43.016 160.89-90.558 237.27-142.32z" fill="#D5D3D3"/> <path d="m3642 4723.9h-6.9941c-81.569 42.143-165.48 79.752-251.19 112.58h5.4463c86.23-32.828 170.66-70.436 252.73-112.58z" fill="#03CB33"/> <path d="m3074.7 4933h-3.5195c-89.244 21.205-179.68 37.443-270.71 48.607h1.8516c91.59-11.164 182.58-27.401 272.37-48.607z" fill="#F3F53F"/> <path d="m3364.7 4845.7h-5.2957c-86.038 31.909-173.85 59.032-262.88 81.191h3.676c89.568-22.159 177.92-49.281 264.5-81.191z" fill="#87DBF9"/> <path d="m2500 5e3c-11.762-0.0054-24.064-5.8086-34.85-15.31h-30.069c20.977 9.9195 43.173 15.305 64.919 15.31z" fill="#755B3D"/> <path d="m2500 5e3c21.746-0.0049 43.942-5.3906 64.919-15.31h-30.069c-10.786 9.5015-23.088 15.305-34.85 15.31z" fill="#6BCD1F"/> <path d="m2500 5e3c-1.7703-0.0186-1.0493-6.8042-1.4514-15.31h-30.517c9.8188 9.4292 21.158 15.305 31.968 15.31z" fill="#2799E5"/> <path d="m2500 5e3c10.81-0.0054 22.149-5.8809 31.968-15.31h-30.517c-0.4022 8.5059 0.3188 15.292-1.4512 15.31z" fill="#25C9A7"/> <path d="m4142.6 4384.6h-10.06c-69.125 60.614-141.61 117.39-216.98 169.97h8.7227c75.826-52.572 148.75-109.35 218.31-169.97z" fill="#7715FD"/> <path d="m2500 5e3c61.003-0.0049 122.13-5.1436 182.6-15.31h-24.025c-52.447 10.153-105.6 15.305-158.58 15.31z" fill="#D5151D"/> <path d="m2500 5e3c-22.684-0.0049-45.806-5.3706-67.737-15.31h-29.18c31.778 10.066 64.507 15.305 96.916 15.31z" fill="#CF0541"/> <path d="m2500 5e3c68.924-0.0049 137.94-5.1343 206.33-15.31h-21.562c-61.197 10.168-123.05 15.305-184.77 15.31z" fill="#5B0B1F"/> <path d="m2500 5e3c42.608-0.0049 85.448-5.1865 127.49-15.31h-27.862c-32.691 10.073-66.316 15.305-99.629 15.31z" fill="#ED6935"/> <path d="m2500 5e3c32.409-0.0049 65.138-5.2441 96.916-15.31h-29.18c-21.931 9.9395-45.053 15.305-67.737 15.31z" fill="#014B9D"/> <path d="m2500 5e3c52.187-0.0049 104.54-5.1587 156.19-15.31h-26.136c-42.903 10.127-86.594 15.305-130.06 15.31z" fill="#617137"/> <path d="m4717.8 1346.3h-13.582c42.32 81.864 80.137 166.09 113.21 252.14h14.28c-33.28-86.057-71.332-170.28-113.91-252.14z" fill="#27B50F"/> <path d="m3924.3 445.41h-8.7227c75.37 52.577 147.85 109.36 216.98 169.97h10.06c-69.559-60.621-142.49-117.4-218.31-169.97z" fill="#C3A971"/> <path d="m4375.9 847.49h-11.489c60.619 69.247 117.43 141.88 170.07 217.42h12.537c-52.97-75.549-110.13-148.18-171.12-217.42z" fill="#E73917"/> <path d="m4562 1086.5h-12.628c51.85 76.114 99.513 155.12 142.69 236.51h13.507c-43.444-81.4-91.402-160.41-143.57-236.51z" fill="#FBC769"/> <path d="m3665.4 288.24h-7.1367c81.135 43.019 159.91 90.563 235.81 142.32h8.5898c-76.38-51.763-155.64-99.306-237.27-142.32z" fill="#9BD7B1"/> <path d="m4162.3 632.75h-10.18c68.498 61.363 133.62 126.55 194.95 195.13h11.381c-61.717-68.588-127.24-133.77-196.15-195.13z" fill="#ADCFB7"/> <path d="m3389.3 163.54h-5.4463c85.709 32.83 169.62 70.44 251.19 112.58h6.9941c-82.08-42.146-166.51-79.755-252.74-112.58z" fill="#450BF1"/> <path d="m2500 0c91.703 0.0051 183.42 5.1197 274.56 15.31h1.6917c-91.704-10.191-183.99-15.305-276.25-15.31z" fill="#6FAD1B"/> <path d="m2802.3 18.35h-1.8516c91.031 11.164 181.46 27.402 270.71 48.607h3.5195c-89.797-21.206-180.78-37.443-272.37-48.607z" fill="#655BE3"/> <path d="m3100.2 73.13h-3.676c89.024 22.16 176.84 49.283 262.88 81.191h5.2959c-86.574-31.911-174.93-59.032-264.5-81.191z" fill="#EF1593"/> <path d="m4547 3935.1h-12.537c-52.639 75.541-109.45 148.17-170.07 217.42h11.489c60.985-69.24 118.15-141.87 171.12-217.42z" fill="#ED6DD9"/> <path d="m4923.6 3113h-14.843c-22.489 89.445-49.904 177.66-82.074 264.07h14.337c32.365-86.405 59.951-174.62 82.579-264.07z" fill="#630DA5"/> <path d="m4831.7 3401.6h-14.28c-33.074 86.049-70.891 170.28-113.21 252.14h13.582c42.577-81.856 80.628-166.08 113.91-252.14z" fill="#BD5BA9"/> <path d="m4841.1 1622.9h-14.337c32.169 86.412 59.585 174.62 82.074 264.07h14.843c-22.629-89.45-50.214-177.66-82.58-264.07z" fill="#E10B47"/> <path d="m4358.5 4172.1h-11.381c-61.332 68.581-126.46 133.76-194.95 195.13h10.18c68.912-61.356 134.44-126.54 196.15-195.13z" fill="#E98155"/> <path d="m4705.6 3677h-13.507c-43.173 81.393-90.837 160.4-142.69 236.52h12.628c52.164-76.107 100.12-155.12 143.57-236.52z" fill="#0FC1C5"/> <path d="m4980 2815.4h-15.188c-11.573 91.527-28.185 182.43-49.731 272.12h14.881c21.678-89.685 38.393-180.59 50.038-272.12z" fill="#A15941"/> <path d="m4983.2 2210.7h-15.208c10.607 91.651 16.172 183.9 16.659 276.17h15.31c-0.4898-92.267-6.0889-184.52-16.761-276.17z" fill="#47A9E1"/> <path d="m4930 1912.5h-14.881c21.546 89.689 38.158 180.59 49.731 272.11h15.188c-11.645-91.53-28.36-182.43-50.038-272.11z" fill="#6FAF27"/> <path d="m4999.9 2513.1h-15.31c-0.4868 92.266-6.0513 184.52-16.659 276.17h15.208c10.672-91.648 16.272-183.9 16.761-276.17z" fill="#B99731"/> <path d="m69.976 3087.5h14.881c-21.546-89.69-38.158-180.59-49.731-272.12h-15.188c11.645 91.53 28.36 182.43 50.038 272.12z" fill="#23038D"/> <path d="m641.47 827.87h11.382c61.332-68.581 126.46-133.76 194.95-195.13h-10.18c-68.912 61.356-134.44 126.54-196.15 195.13z" fill="#31C53F"/> <path d="m452.89 1064.9h12.536c52.639-75.541 109.45-148.17 170.07-217.42h-11.488c-60.986 69.24-118.15 141.87-171.12 217.42z" fill="#EF55FB"/> <path d="m1357.9 276.12h6.9941c81.57-42.143 165.48-79.752 251.19-112.58h-5.4464c-86.23 32.828-170.66 70.436-252.74 112.58z" fill="#134315"/> <path d="m2500 5e3c-33.314-0.0049-66.938-5.2368-99.629-15.31h-27.862c42.043 10.124 84.883 15.305 127.49 15.31z" fill="#679D33"/> <path d="m294.36 1323h13.507c43.174-81.392 90.837-160.4 142.69-236.51h-12.628c-52.164 76.106-100.12 155.11-143.57 236.51z" fill="#EF97B5"/> <path d="m1641.6 154.32h16.813c84.228-31.9 170.22-59.027 257.41-81.191h-11.67c-88.916 22.16-176.62 49.283-262.56 81.191z" fill="#9B4D99"/> <path d="m168.21 1598.4h14.28c33.074-86.05 70.891-170.28 113.21-252.14h-13.582c-42.577 81.857-80.628 166.08-113.91 252.14z" fill="#E13BD1"/> <path d="m19.938 2184.6h15.188c11.573-91.527 28.185-182.43 49.731-272.11h-14.881c-21.678 89.685-38.393 180.58-50.037 272.11z" fill="#1D9385"/> <path d="m0 2486.9h15.31c0.4868-92.266 6.0514-184.52 16.659-276.17h-15.207c-10.672 91.648-16.271 183.9-16.761 276.17z" fill="#C98901"/> <path d="m76.282 1887h14.843c22.489-89.445 49.904-177.66 82.074-264.07h-14.337c-32.365 86.405-59.951 174.62-82.579 264.07z" fill="#C157DD"/> <path d="m2500 0c-89.57 0.0051-179.16 5.1206-268.17 15.31h8.9717c86.021-10.188 172.63-15.305 259.2-15.31z" fill="#5B2DD3"/> <path d="m2500 0c-81.634 0.0051-163.31 5.1247-244.4 15.31h15.727c75.846-10.182 152.29-15.305 228.68-15.31z" fill="#C7E15F"/> <path d="m1635.2 154.32h5.2958c86.038-31.908 173.85-59.031 262.88-81.191h-3.6759c-89.568 22.158-177.92 49.28-264.5 81.191z" fill="#81992B"/> <path d="m2500 0c-68.924 0.0051-137.94 5.1343-206.33 15.31h21.562c61.197-10.168 123.05-15.305 184.77-15.31z" fill="#F3AB9F"/> <path d="m2500 0c-86.234 0.0051-172.5 5.1222-258.18 15.31h12.44c81.535-10.186 163.66-15.305 245.74-15.31z" fill="#C5AB7F"/> <path d="m2500 0c-75.835 0.0051-151.74 5.1285-227.04 15.31h18.782c69.034-10.176 138.69-15.305 208.25-15.31z" fill="#11D7EB"/> <path d="m2223.7 15.31h1.6919c91.14-10.19 182.86-15.305 274.56-15.31-92.268 0.0051-184.55 5.1195-276.25 15.31z" fill="#D1EB93"/> <path d="m1925.2 66.957h3.5197c89.243-21.205 179.67-37.443 270.71-48.607h-1.8516c-91.59 11.164-182.58 27.401-272.37 48.607z" fill="#A97521"/> <path d="m2500 0c-91.591 0.0051-183.2 5.1197-274.23 15.31h5.3713c89.238-10.19 179.06-15.305 268.86-15.31z" fill="#3B5989"/> <path d="m16.761 2789.3h15.207c-10.607-91.651-16.172-183.9-16.659-276.17h-15.31c0.4898 92.267 6.0889 184.52 16.761 276.17z" fill="#6B412D"/> <path d="m857.34 615.39h10.06c69.125-60.614 141.61-117.39 216.98-169.97h-8.7225c-75.826 52.572-148.75 109.35-218.31 169.97z" fill="#83914F"/> <path d="m2500 5e3c-82.081-0.0049-164.21-5.1245-245.74-15.31h-12.44c85.682 10.188 171.95 15.305 258.18 15.31z" fill="#B1E3FB"/> <path d="m2500 5e3c-76.383-0.0049-152.83-5.1279-228.68-15.31h-15.727c81.089 10.186 162.77 15.305 244.4 15.31z" fill="#9D2B17"/> <path d="m2500 5e3c-86.574-0.0049-173.18-5.1221-259.2-15.31h-8.9717c89.011 10.19 178.6 15.305 268.17 15.31z" fill="#CD4F6B"/> <path d="m2500 5e3c-89.798-0.0049-179.62-5.1206-268.86-15.31h-5.3713c91.028 10.19 182.64 15.305 274.23 15.31z" fill="#B17305"/> <path d="m2500 5e3c-91.703-0.0049-183.42-5.1196-274.56-15.31h-1.6919c91.703 10.19 183.99 15.305 276.25 15.31z" fill="#C9D7E3"/> <path d="m2500 5e3c-69.565-0.0049-139.22-5.1338-208.25-15.31h-18.782c75.298 10.182 151.2 15.305 227.04 15.31z" fill="#37A32F"/> <path d="m2500 5e3c-43.465-0.0049-87.156-5.1831-130.06-15.31h-26.135c51.65 10.151 104.01 15.305 156.19 15.31z" fill="#ABBBF3"/> <path d="m2500 5e3c-52.983-0.0049-106.13-5.1572-158.58-15.31h-24.025c60.473 10.166 121.6 15.305 182.6 15.31z" fill="#9B69F5"/> <path d="m2500 5e3c-61.727-0.0049-123.58-5.1426-184.77-15.31h-21.562c68.394 10.176 137.41 15.305 206.33 15.31z" fill="#F947E5"/> <path d="m2197.6 4981.7h1.8516c-91.032-11.165-181.46-27.402-270.71-48.607h-3.5195c89.798 21.206 180.78 37.443 272.37 48.607z" fill="#C3A107"/> <path d="m2500 0c-61.003 0.0051-122.13 5.1435-182.6 15.31h24.025c52.447-10.153 105.6-15.305 158.58-15.31z" fill="#27393B"/> <path d="m1899.7 4926.9h3.676c-89.024-22.16-176.84-49.283-262.88-81.191h-5.2958c86.574 31.911 174.93 59.033 264.5 81.191z" fill="#496FAD"/> <path d="m437.92 3913.5h12.628c-51.85-76.115-99.513-155.12-142.69-236.52h-13.507c43.444 81.4 91.402 160.41 143.57 236.52z" fill="#C78F43"/> <path d="m624.01 4152.5h11.488c-60.619-69.247-117.43-141.88-170.07-217.42h-12.536c52.969 75.549 110.13 148.18 171.12 217.42z" fill="#1D152D"/> <path d="m158.86 3377.1h14.337c-32.169-86.412-59.585-174.62-82.074-264.07h-14.843c22.629 89.45 50.214 177.66 82.58 264.07z" fill="#598305"/> <path d="m282.11 3653.7h13.582c-42.32-81.864-80.136-166.09-113.21-252.14h-14.28c33.28 86.056 71.331 170.28 113.91 252.14z" fill="#9B1131"/> <path d="m1334.6 4711.8h7.137c-81.135-43.02-159.91-90.564-235.81-142.32h-8.5898c76.38 51.764 155.64 99.306 237.27 142.32z" fill="#47F9FD"/> <path d="m1610.6 4836.5h5.4464c-85.708-32.831-169.62-70.44-251.19-112.58h-6.9943c82.079 42.146 166.5 79.754 252.73 112.58z" fill="#03151D"/> <path d="m1075.6 4554.6h8.7225c-75.37-52.578-147.85-109.36-216.98-169.97h-10.06c69.559 60.621 142.49 117.4 218.31 169.97z" fill="#2547FD"/> <path d="m837.63 4367.3h10.18c-68.497-61.363-133.62-126.55-194.95-195.13h-11.382c61.717 68.588 127.24 133.77 196.15 195.13z" fill="#E5FB6F"/> <path d="m4858.9 1912.5h-78.918c20.35 89.728 36.026 180.61 46.949 272.11h80.542c-11.302-91.517-27.525-182.41-48.574-272.11z" fill="#53A773"/> <path d="m4253.2 847.49h-84.48c54.363 69.384 105.19 142.02 152.22 217.42h92.186c-49.447-75.462-102.86-148.09-159.92-217.42z" fill="#1DEB5B"/> <path d="m4427.1 1086.5h-92.86c46.491 76.251 89.129 155.25 127.71 236.51h99.325c-40.561-81.318-85.368-160.32-134.17-236.51z" fill="#9B0901"/> <path d="m4572.7 1346.3h-99.877c37.936 81.99 71.763 166.2 101.33 252.14h105.01c-31.078-85.987-66.627-170.21-106.46-252.14z" fill="#81EDF3"/> <path d="m4687.9 1622.9h-105.43c28.827 86.515 53.349 174.7 73.458 264.07h109.15c-21.136-89.398-46.907-177.6-77.178-264.07z" fill="#BDA733"/> <path d="m4053.6 632.75h-74.86c61.433 61.488 119.7 126.68 174.49 195.13h83.694c-57.609-68.504-118.84-133.69-183.32-195.13z" fill="#B1ABF3"/> <path d="m3567.3 4723.9h-51.432c-72.879 42.068-147.99 79.702-224.82 112.58h40.05c80.66-32.857 159.57-70.479 236.2-112.58z" fill="#B35BDB"/> <path d="m3831.1 445.41h-64.141c67.593 52.682 132.46 109.48 194.2 169.97h73.973c-64.928-60.546-133.08-117.34-204.03-169.97z" fill="#ABDD05"/> <path d="m3061 73.13h-27.031c79.767 22.184 158.39 49.328 235.28 81.191h38.942c-80.844-31.884-163.43-59.018-247.2-81.191z" fill="#21BB39"/> <path d="m3331.1 163.54h-40.05c76.829 32.88 151.94 70.514 224.82 112.58h51.432c-76.631-42.103-155.54-79.726-236.2-112.58z" fill="#1983AD"/> <path d="m3589.1 288.24h-52.481c72.75 43.098 143.26 90.665 211.06 142.32h63.166c-71.299-51.702-145.37-99.259-221.74-142.32z" fill="#215913"/> <path d="m1929.5 66.957h11.174c87.373-21.202 175.93-37.442 265.08-48.607h-5.8787c-90.92 11.164-181.24 27.402-270.37 48.607z" fill="#AD5BF5"/> <path d="m4413.1 3935.1h-92.186c-47.027 75.401-97.854 148.03-152.22 217.42h84.48c57.066-69.324 110.48-141.95 159.92-217.42z" fill="#9DD169"/> <path d="m4236.9 4172.1h-83.694c-54.785 68.443-113.06 133.64-174.49 195.13h74.86c64.484-61.433 125.71-126.62 183.32-195.13z" fill="#21B5D9"/> <path d="m4561.3 3677h-99.325c-38.58 81.262-81.219 160.26-127.71 236.52h92.86c48.807-76.192 93.614-155.2 134.17-236.52z" fill="#7757B5"/> <path d="m4820.7 2210.7h-111.83c9.4976 91.686 14.474 183.91 14.91 276.17h112.58c-0.4579-92.263-5.6879-184.5-15.665-276.17z" fill="#CF894D"/> <path d="m4035.1 4384.6h-73.973c-61.743 60.49-126.61 117.29-194.2 169.97h64.141c70.951-52.635 139.1-109.43 204.03-169.97z" fill="#55474D"/> <path d="m3810.9 4569.4h-63.166c-67.804 51.656-138.31 99.224-211.06 142.32h52.481c76.37-43.062 150.45-90.619 221.75-142.32z" fill="#B59100"/> <path d="m4836.4 2513.1h-112.58c-0.4355 92.262-5.4121 184.48-14.91 276.17h111.83c9.977-91.671 15.207-183.91 15.665-276.17z" fill="#FB5303"/> <path d="m4679.2 3401.6h-105.01c-29.564 85.939-63.392 170.15-101.33 252.14h99.877c39.83-81.935 75.378-166.15 106.46-252.14z" fill="#5383CF"/> <path d="m1138.3 430.56h45.553c71.586-51.706 145.95-99.262 222.62-142.32h-37.847c-79.276 43.035-156.22 90.584-230.32 142.32z" fill="#0D9777"/> <path d="m4765.1 3113h-109.15c-20.11 89.364-44.632 177.55-73.459 264.07h105.43c30.271-86.471 56.042-174.67 77.178-264.07z" fill="#01A3D3"/> <path d="m3031 73.13h-34.171c74.289 22.202 147.46 49.362 218.94 81.191h49.228c-76.472-31.86-154.66-59.006-234-81.191z" fill="#5365B7"/> <path d="m2098.5 73.13h-46.85c-67.123 22.233-133.16 49.416-197.55 81.191h67.494c57.54-31.709 116.7-58.919 176.91-81.191z" fill="#5531EB"/> <path d="m2155.4 73.13h-52.202c-59.519 22.276-117.98 49.489-174.83 81.191h75.204c49.22-31.604 100-58.854 151.83-81.191z" fill="#6787F1"/> <path d="m2283.5 73.13h-60.539c-41.891 22.456-82.714 49.762-122.07 81.191h87.216c30.537-31.21 62.402-58.563 95.389-81.191z" fill="#2125C1"/> <path d="m2217.4 73.13h-56.787c-51.066 22.344-101.09 49.598-149.55 81.191h81.81c40.166-31.446 81.813-58.747 124.52-81.191z" fill="#ABED1B"/> <path d="m2047.5 73.13h-40.81c-73.762 22.204-146.41 49.365-217.37 81.191h58.793c64.998-31.78 131.65-58.961 199.39-81.191z" fill="#595F0F"/> <path d="m1391.3 276.12h37.091c76.938-42.105 156.16-79.727 237.14-112.58h-28.883c-83.74 32.84-165.7 70.455-245.34 112.58z" fill="#D9DD29"/> <path d="m2003.1 73.13h-34.171c-79.337 22.185-157.53 49.33-234 81.191h49.229c71.481-31.829 144.66-58.988 218.94-81.191z" fill="#F11BC3"/> <path d="m2352.8 73.13h-63.402c-32.119 22.65-63.11 50.006-92.792 81.191h91.34c20.541-30.879 42.105-58.238 64.854-81.191z" fill="#E57DC1"/> <path d="m1660.5 154.32h28.084c81.167-31.886 164.08-59.019 248.17-81.191h-19.494c-86.971 22.164-172.75 49.292-256.76 81.191z" fill="#BD534D"/> <path d="m1966 73.13h-27.031c-83.762 22.173-166.35 49.307-247.2 81.191h38.942c76.897-31.863 155.52-59.007 235.28-81.191z" fill="#675785"/> <path d="m2641 73.13h-65.335c11.959 23.452 22.926 50.684 33.367 81.191h94.124c-19.666-30.846-40.318-58.201-62.156-81.191z" fill="#F19FF1"/> <path d="m2777 73.13h-60.539c32.987 22.628 64.852 49.981 95.389 81.191h87.215c-39.351-31.429-80.175-58.735-122.07-81.191z" fill="#A393BF"/> <path d="m2839.3 73.13h-56.787c42.711 22.444 84.358 49.745 124.52 81.191h81.81c-48.462-31.593-98.481-58.847-149.55-81.191z" fill="#9B4737"/> <path d="m2424.2 73.13h-65.335c-21.838 22.99-42.49 50.345-62.156 81.191h94.124c10.441-30.507 21.408-57.738 33.367-81.191z" fill="#13C547"/> <path d="m2948.3 73.13h-46.85c60.213 22.272 119.37 49.482 176.91 81.191h67.494c-64.388-31.775-130.43-58.958-197.55-81.191z" fill="#8BB531"/> <path d="m2896.7 73.13h-52.202c51.829 22.337 102.61 49.587 151.83 81.191h75.204c-56.851-31.702-115.31-58.915-174.83-81.191z" fill="#7165FD"/> <path d="m2496.8 73.13h-66.308c-10.992 23.498-21.039 50.712-30.608 81.191h95.527c0.4318-30.313 0.8839-57.389 1.3893-81.191z" fill="#0949EB"/> <path d="m2569.4 73.13h-66.308c0.5054 23.802 0.9575 50.878 1.3896 81.191h95.527c-9.5691-30.479-19.616-57.693-30.608-81.191z" fill="#533D43"/> <path d="m2710.5 73.13h-63.402c22.749 22.953 44.312 50.312 64.854 81.191h91.341c-29.682-31.185-60.673-58.541-92.792-81.191z" fill="#939D1D"/> <path d="m2993.3 73.13h-40.81c67.738 22.23 134.39 49.41 199.39 81.191h58.793c-70.96-31.826-143.61-58.986-217.37-81.191z" fill="#A195E1"/> <path d="m4817.8 2815.4h-111.68c-10.353 91.483-25.211 182.35-44.511 272.12h109.43c20.27-89.732 35.885-180.61 46.764-272.12z" fill="#99D511"/> <path d="m179.2 2789.3h111.83c-9.4974-91.686-14.474-183.91-14.91-276.17h-112.58c0.4578 92.263 5.6881 184.5 15.665 276.17z" fill="#578721"/> <path d="m163.53 2486.9h112.58c0.4357-92.262 5.4126-184.48 14.91-276.17h-111.83c-9.9767 91.671-15.207 183.91-15.665 276.17z" fill="#AF27C5"/> <path d="m182.17 2184.6h111.68c10.353-91.482 25.211-182.35 44.511-272.11h-109.43c-20.27 89.731-35.884 180.61-46.764 272.11z" fill="#634923"/> <path d="m228.93 3087.5h109.43c-19.3-89.762-34.158-180.63-44.511-272.12h-111.68c10.88 91.501 26.494 182.38 46.764 272.12z" fill="#83AF4D"/> <path d="m234.83 1887h109.15c20.11-89.364 44.632-177.55 73.459-264.07h-105.43c-30.271 86.471-56.041 174.67-77.177 264.07z" fill="#19E955"/> <path d="m746.72 4152.5h84.48c-54.363-69.384-105.19-142.02-152.22-217.42h-92.186c49.448 75.462 102.86 148.09 159.92 217.42z" fill="#459761"/> <path d="m320.74 1598.4h105.01c29.565-85.94 63.392-170.15 101.33-252.14h-99.877c-39.83 81.936-75.379 166.15-106.46 252.14z" fill="#5375FF"/> <path d="m312 3377.1h105.43c-28.827-86.515-53.349-174.7-73.459-264.07h-109.15c21.136 89.398 46.907 177.6 77.178 264.07z" fill="#C31D29"/> <path d="m572.81 3913.5h92.86c-46.491-76.252-89.13-155.25-127.71-236.52h-99.325c40.561 81.318 85.368 160.32 134.18 236.52z" fill="#4FAD5F"/> <path d="m427.19 3653.7h99.877c-37.936-81.989-71.763-166.2-101.33-252.14h-105.01c31.078 85.986 66.627 170.2 106.46 252.14z" fill="#B7159B"/> <path d="m438.64 1323h99.325c38.58-81.262 81.218-160.26 127.71-236.51h-92.86c-48.806 76.192-93.614 155.2-134.17 236.51z" fill="#392783"/> <path d="m1829.5 163.54h-60.465c-71.067 32.921-140.47 70.572-207.71 112.58h77.649c61.575-41.942 125.24-79.613 190.52-112.58z" fill="#2BA365"/> <path d="m1432.6 276.12h51.432c72.879-42.069 147.99-79.702 224.82-112.58h-40.05c-80.661 32.857-159.57 70.48-236.2 112.58z" fill="#69BB77"/> <path d="m1763.8 163.54h-50.629c-76.416 32.883-151.12 70.518-223.6 112.58h65.017c67.733-42.016 137.64-79.666 209.21-112.58z" fill="#59798F"/> <path d="m1905.1 163.54h-69.414c-64.695 32.975-127.77 70.648-188.77 112.58h89.14c54.5-41.84 110.98-79.536 169.04-112.58z" fill="#AB1D29"/> <path d="m763.04 827.87h83.694c54.785-68.444 113.06-133.64 174.49-195.13h-74.86c-64.484 61.432-125.71 126.62-183.32 195.13z" fill="#33C9E3"/> <path d="m586.8 1064.9h92.186c47.027-75.401 97.854-148.03 152.22-217.42h-84.48c-57.066 69.324-110.48 141.95-159.92 217.42z" fill="#572DC9"/> <path d="m946.37 4367.3h74.86c-61.433-61.489-119.7-126.68-174.49-195.13h-83.694c57.609 68.504 118.84 133.69 183.32 195.13z" fill="#DBD33B"/> <path d="m3236.1 4836.5h50.629c76.415-32.883 151.12-70.518 223.6-112.58h-65.017c-67.732 42.016-137.64 79.666-209.21 112.58z" fill="#5905DF"/> <path d="m1189.1 430.56h63.166c67.803-51.656 138.31-99.223 211.06-142.32h-52.481c-76.37 43.062-150.45 90.619-221.74 142.32z" fill="#49EF61"/> <path d="m964.79 615.39h73.973c61.743-60.49 126.61-117.29 194.2-169.97h-64.141c-70.951 52.635-139.1 109.43-204.03 169.97z" fill="#9B5FDF"/> <path d="m2820.7 4836.5h89.696c40.416-33.34 79.345-71.089 116.64-112.58h-115.19c-28.985 41.269-59.354 79.02-91.147 112.58z" fill="#B54783"/> <path d="m2291 4836.5h96.802c-11.344-34.233-21.874-71.842-31.883-112.58h-124.31c18.748 40.966 38.456 78.664 59.392 112.58z" fill="#D1BD7F"/> <path d="m1168.8 4554.6h64.141c-67.593-52.683-132.46-109.48-194.2-169.97h-73.973c64.928 60.546 133.08 117.34 204.03 169.97z" fill="#A53DA5"/> <path d="m2397 4836.5h98.244c-0.4749-34.409-0.9121-71.953-1.3279-112.58h-126.16c9.1777 40.723 18.833 78.323 29.247 112.58z" fill="#291319"/> <path d="m2504.6 4836.5h98.244c10.414-34.259 20.069-71.859 29.247-112.58h-126.16c-0.4155 40.629-0.8528 78.173-1.3276 112.58z" fill="#13EB9D"/> <path d="m2718 4836.5h93.939c30.951-33.587 60.485-71.336 88.665-112.58h-120.63c-19.574 40.99-40.145 78.696-61.97 112.58z" fill="#D5BFB5"/> <path d="m3170.4 4836.5h60.465c71.067-32.92 140.47-70.572 207.71-112.58h-77.649c-61.575 41.942-125.24 79.612-190.52 112.58z" fill="#CBD9C9"/> <path d="m2918.7 4836.5h84.138c49.262-33.17 96.996-70.896 142.9-112.58h-108.05c-38.06 41.511-77.778 79.26-118.99 112.58z" fill="#E781DD"/> <path d="m3094.8 4836.5h69.414c64.694-32.975 127.77-70.648 188.77-112.58h-89.14c-54.499 41.84-110.98 79.536-169.04 112.58z" fill="#59456D"/> <path d="m3010.5 4836.5h77.344c57.391-33.054 113.21-70.753 167.06-112.58h-99.323c-46.617 41.7-95.082 79.424-145.08 112.58z" fill="#A7E9B3"/> <path d="m2612.2 4836.5h96.802c20.936-33.918 40.644-71.616 59.392-112.58h-124.31c-10.009 40.74-20.539 78.349-31.883 112.58z" fill="#8751A3"/> <path d="m1668.8 4836.5h40.05c-76.828-32.88-151.94-70.514-224.82-112.58h-51.431c76.63 42.102 155.54 79.725 236.2 112.58z" fill="#75CDB9"/> <path d="m2188 4836.5h93.938c-21.825-33.886-42.396-71.592-61.97-112.58h-120.63c28.18 41.246 57.714 78.995 88.665 112.58z" fill="#AD5FD1"/> <path d="m1410.8 4711.8h52.481c-72.751-43.098-143.26-90.666-211.06-142.32h-63.166c71.3 51.703 145.38 99.26 221.75 142.32z" fill="#C76509"/> <path d="m1769.1 4836.5h60.466c-65.284-32.97-128.95-70.64-190.52-112.58h-77.649c67.237 42.01 136.64 79.662 207.71 112.58z" fill="#D3A1D1"/> <path d="m1713.2 4836.5h50.629c-71.572-32.916-141.47-70.566-209.21-112.58h-65.017c72.475 42.064 147.18 79.699 223.59 112.58z" fill="#27174B"/> <path d="m2089.5 4836.5h89.696c-31.794-33.562-62.162-71.313-91.147-112.58h-115.19c37.292 41.493 76.221 79.242 116.64 112.58z" fill="#456773"/> <path d="m1997.1 4836.5h84.137c-41.208-33.322-80.926-71.071-118.99-112.58h-108.05c45.9 41.686 93.634 79.412 142.9 112.58z" fill="#BDD305"/> <path d="m1912.1 4836.5h77.344c-49.996-33.158-98.461-70.882-145.08-112.58h-99.323c53.846 41.829 109.67 79.528 167.06 112.58z" fill="#47538D"/> <path d="m1835.7 4836.5h69.414c-58.058-33.046-114.54-70.742-169.04-112.58h-89.14c60.996 41.934 124.07 79.607 188.77 112.58z" fill="#8D7385"/> <path d="m4771 1912.5h-109.43c19.3 89.762 34.158 180.63 44.511 272.11h111.68c-10.879-91.501-26.494-182.38-46.764-272.11z" fill="#8D6B39"/> <path d="m4113.7 632.75h-53.987c64.733 61.428 126.21 126.62 184.05 195.13h60.357c-59.879-68.551-123.48-133.74-190.42-195.13z" fill="#33192B"/> <path d="m4321 847.49h-60.924c57.287 69.319 110.91 141.95 160.55 217.42h66.481c-51.394-75.51-106.88-148.14-166.11-217.42z" fill="#5B6F81"/> <path d="m4652.9 1346.3h-72.028c39.985 81.932 75.675 166.15 106.88 252.14h75.727c-32.295-86.025-69.228-170.25-110.58-252.14z" fill="#05336B"/> <path d="m4501.7 1086.5h-66.967c48.996 76.187 93.98 155.19 134.7 236.51h71.63c-42.154-81.363-88.703-160.37-139.37-236.51z" fill="#B76933"/> <path d="m3882.6 445.41h-46.257c71.226 52.631 139.65 109.42 204.84 169.97h53.347c-67.488-60.588-138.28-117.37-211.93-169.97z" fill="#459143"/> <path d="m2793.5 18.35h-9.8191c85.964 11.167 171.35 27.412 255.56 48.607h18.665c-87.15-21.201-175.48-37.442-264.41-48.607z" fill="#6D35B5"/> <path d="m3082.7 73.13h-19.494c84.089 22.172 167 49.305 248.17 81.191h28.084c-84.012-31.899-169.79-59.026-256.76-81.191z" fill="#890FC7"/> <path d="m3631.3 288.24h-37.847c76.666 43.059 151.03 90.615 222.62 142.32h45.553c-74.108-51.737-151.05-99.286-230.32-142.32z" fill="#41C9AF"/> <path d="m4772.6 1622.9h-76.03c30.389 86.467 56.261 174.67 77.481 264.07h78.713c-21.961-89.427-48.735-177.63-80.164-264.07z" fill="#6FD591"/> <path d="m3363.3 163.54h-28.883c80.975 32.855 160.2 70.477 237.14 112.58h37.091c-79.643-42.128-161.6-79.742-245.34-112.58z" fill="#17B1E9"/> <path d="m4304.1 4172.1h-60.357c-57.84 68.509-119.31 133.7-184.05 195.13h53.987c66.932-61.39 130.54-126.58 190.42-195.13z" fill="#0F7349"/> <path d="m4641.1 3677h-71.63c-40.724 81.323-85.708 160.33-134.7 236.52h66.967c50.664-76.145 97.213-155.15 139.37-236.52z" fill="#4F7FAB"/> <path d="m4487.2 3935.1h-66.481c-49.646 75.467-103.27 148.1-160.55 217.42h60.924c59.233-69.277 114.72-141.91 166.11-217.42z" fill="#557FD1"/> <path d="m4763.5 3401.6h-75.727c-31.202 85.99-66.892 170.21-106.88 252.14h72.028c41.349-81.892 78.281-166.12 110.58-252.14z" fill="#7BF537"/> <path d="m1989.4 163.54h-77.343c-57.392 33.054-113.21 70.753-167.06 112.58h99.323c46.618-41.7 95.083-79.425 145.08-112.58z" fill="#E33B3D"/> <path d="m4094.5 4384.6h-53.347c-65.189 60.55-133.61 117.34-204.84 169.97h46.257c73.646-52.599 144.44-109.38 211.93-169.97z" fill="#01C1A1"/> <path d="m905.39 615.39h53.347c65.189-60.55 133.61-117.34 204.84-169.97h-46.257c-73.646 52.599-144.44 109.38-211.93 169.97z" fill="#2DE363"/> <path d="m4852.8 3113h-78.712c-21.221 89.401-47.093 177.6-77.482 264.07h76.031c31.429-86.435 58.202-174.64 80.164-264.07z" fill="#8DB3FD"/> <path d="m4926.8 2513.1h-81.19c-0.46 92.263-5.7109 184.5-15.727 276.17h80.646c10.361-91.659 15.796-183.9 16.271-276.17z" fill="#790F3D"/> <path d="m4907.4 2815.4h-80.542c-10.923 91.503-26.599 182.39-46.949 272.12h78.918c21.048-89.706 37.271-180.6 48.574-272.12z" fill="#97FBC3"/> <path d="m2782.5 18.35h-13.616c81.524 11.171 162.49 27.423 242.29 48.607h25.881c-83.875-21.194-168.93-37.44-254.56-48.607z" fill="#ADD161"/> <path d="m2357.6 18.35h-28.604c-52.038 11.218-103.62 27.562-154 48.607h54.372c41.777-20.956 84.772-37.355 128.23-48.607z" fill="#17497B"/> <path d="m2461.8 18.35h-32.909c-22.211 11.52-43.67 28.17-64.007 48.607h62.556c10.657-19.951 21.948-36.614 34.36-48.607z" fill="#2333ED"/> <path d="m2297.7 18.35h-23.598c-68.535 11.184-136.57 27.465-203.44 48.607h44.857c59.784-21.108 120.74-37.411 182.18-48.607z" fill="#AF9BC9"/> <path d="m2425.8 18.35h-31.936c-32.62 11.333-64.705 27.841-95.555 48.607h60.705c21.258-20.474 43.659-37.111 66.785-48.607z" fill="#5F5947"/> <path d="m2390.9 18.35h-30.493c-42.619 11.256-84.77 27.662-125.7 48.607h57.964c31.744-20.787 64.724-37.283 98.229-48.607z" fill="#4BF13F"/> <path d="m2326.4 18.35h-26.294c-60.722 11.197-120.97 27.503-180.04 48.607h49.981c51.17-21.051 103.53-37.391 156.35-48.607z" fill="#2BD5B9"/> <path d="m2272 18.35h-20.556c-75.357 11.176-150.18 27.44-223.85 48.607h39.074c67.497-21.145 136.16-37.424 205.33-48.607z" fill="#0F1517"/> <path d="m2216.3 18.35h-9.8191c-88.923 11.165-177.26 27.406-264.41 48.607h18.665c84.209-21.195 169.6-37.44 255.56-48.607z" fill="#797BD5"/> <path d="m2767.5 18.35h-17.212c75.898 11.176 151.26 27.439 225.46 48.607h32.718c-79.358-21.183-159.89-37.436-240.97-48.607z" fill="#6355F3"/> <path d="m2249.7 18.35h-17.212c-81.083 11.171-161.61 27.424-240.97 48.607h32.718c74.2-21.168 149.57-37.431 225.46-48.607z" fill="#E141DF"/> <path d="m2231 18.35h-13.616c-85.628 11.168-170.68 27.413-254.56 48.607h25.881c79.797-21.184 160.77-37.436 242.29-48.607z" fill="#A7DFBD"/> <path d="m2725.8 18.35h-23.598c61.436 11.196 122.39 27.499 182.18 48.607h44.857c-66.867-21.142-134.9-37.423-203.44-48.607z" fill="#E9E1DF"/> <path d="m2699.8 18.35h-26.294c52.822 11.216 105.18 27.556 156.35 48.607h49.981c-59.072-21.104-119.32-37.41-180.04-48.607z" fill="#11E1A7"/> <path d="m2670.9 18.35h-28.604c43.46 11.252 86.455 27.651 128.23 48.607h54.372c-50.385-21.045-101.96-37.389-154-48.607z" fill="#C1D783"/> <path d="m2748.4 18.35h-20.556c69.168 11.184 137.83 27.462 205.33 48.607h39.074c-73.661-21.167-148.49-37.431-223.85-48.607z" fill="#1F078F"/> <path d="m2498.4 18.35h-33.399c-11.456 12.066-21.768 28.707-31.52 48.607h63.488c0.4348-19.551 0.8772-35.763 1.4309-48.607z" fill="#276985"/> <path d="m2571 18.35h-32.909c12.412 11.993 23.703 28.656 34.36 48.607h62.556c-20.337-20.437-41.796-37.086-64.007-48.607z" fill="#7B2725"/> <path d="m2639.5 18.35h-30.493c33.506 11.324 66.486 27.82 98.23 48.607h57.964c-40.931-20.945-83.082-37.351-125.7-48.607z" fill="#37DFB5"/> <path d="m2535 18.35h-33.399c0.5535 12.844 0.9958 29.056 1.4309 48.607h63.488c-9.7515-19.9-20.064-36.541-31.519-48.607z" fill="#178189"/> <path d="m2606 18.35h-31.936c23.126 11.496 45.527 28.133 66.785 48.607h60.706c-30.85-20.766-62.935-37.274-95.555-48.607z" fill="#1FE985"/> <path d="m4910.5 2210.7h-80.646c10.016 91.67 15.267 183.91 15.727 276.17h81.19c-0.4756-92.265-5.9097-184.51-16.271-276.17z" fill="#3F1565"/> <path d="m1117.3 4554.6h46.257c-71.226-52.631-139.65-109.42-204.84-169.97h-53.347c67.488 60.588 138.28 117.37 211.93 169.97z" fill="#0F631F"/> <path d="m3861.6 4569.4h-45.553c-71.586 51.706-145.95 99.263-222.62 142.32h37.847c79.276-43.036 156.22-90.584 230.33-142.32z" fill="#D739FD"/> <path d="m886.25 4367.3h53.987c-64.734-61.428-126.21-126.62-184.05-195.13h-60.357c59.879 68.551 123.48 133.74 190.42 195.13z" fill="#C31FAF"/> <path d="m498.24 3913.5h66.968c-48.996-76.188-93.981-155.19-134.7-236.52h-71.63c42.154 81.364 88.703 160.37 139.37 236.52z" fill="#0F59E7"/> <path d="m346.99 3653.7h72.028c-39.985-81.931-75.675-166.15-106.88-252.14h-75.727c32.295 86.024 69.227 170.25 110.58 252.14z" fill="#6DBBF5"/> <path d="m227.34 3377.1h76.031c-30.389-86.467-56.262-174.67-77.482-264.07h-78.712c21.961 89.426 48.735 177.63 80.164 264.07z" fill="#154BA5"/> <path d="m1968.9 4926.9h34.171c-74.289-22.203-147.46-49.362-218.94-81.191h-49.229c76.472 31.861 154.66 59.006 234 81.191z" fill="#BFB921"/> <path d="m1939 4926.9h27.031c-79.767-22.184-158.39-49.328-235.28-81.191h-38.942c80.844 31.884 163.43 59.019 247.2 81.191z" fill="#291BEF"/> <path d="m1368.7 4711.8h37.847c-76.666-43.059-151.03-90.616-222.62-142.32h-45.553c74.108 51.737 151.05 99.286 230.33 142.32z" fill="#27F7F5"/> <path d="m1636.6 4836.5h28.883c-80.974-32.856-160.2-70.477-237.13-112.58h-37.091c79.642 42.127 161.6 79.742 245.34 112.58z" fill="#73B71B"/> <path d="m1917.3 4926.9h19.494c-84.089-22.172-167-49.306-248.17-81.191h-28.084c84.012 31.899 169.79 59.027 256.76 81.191z" fill="#B7E745"/> <path d="m512.77 1064.9h66.482c49.646-75.467 103.27-148.1 160.55-217.42h-60.924c-59.234 69.277-114.72 141.91-166.11 217.42z" fill="#9F75DF"/> <path d="m141.06 3087.5h78.917c-20.35-89.729-36.026-180.61-46.949-272.12h-80.542c11.302 91.517 27.525 182.41 48.574 272.12z" fill="#F7B131"/> <path d="m695.84 827.87h60.357c57.84-68.509 119.31-133.7 184.05-195.13h-53.987c-66.932 61.389-130.54 126.58-190.42 195.13z" fill="#6F8F03"/> <path d="m236.41 1598.4h75.727c31.202-85.991 66.892-170.21 106.88-252.14h-72.028c-41.35 81.892-78.282 166.12-110.58 252.14z" fill="#4375D3"/> <path d="m358.88 1323h71.63c40.723-81.322 85.708-160.33 134.7-236.51h-66.968c-50.663 76.145-97.212 155.15-139.37 236.51z" fill="#F13395"/> <path d="m89.4 2789.3h80.646c-10.016-91.67-15.267-183.91-15.727-276.17h-81.19c0.4755 92.265 5.9096 184.51 16.271 276.17z" fill="#332D61"/> <path d="m147.18 1887h78.712c21.22-89.401 47.093-177.6 77.482-264.07h-76.031c-31.429 86.435-58.203 174.64-80.164 264.07z" fill="#3FFB63"/> <path d="m73.129 2486.9h81.19c0.4596-92.263 5.7107-184.5 15.727-276.17h-80.646c-10.361 91.659-15.795 183.9-16.271 276.17z" fill="#9D6D87"/> <path d="m92.483 2184.6h80.542c10.923-91.502 26.599-182.39 46.949-272.11h-78.917c-21.048 89.706-37.271 180.6-48.574 272.11z" fill="#9B9109"/> <path d="m678.88 4152.5h60.924c-57.287-69.319-110.91-141.95-160.55-217.42h-66.482c51.394 75.51 106.88 148.14 166.11 217.42z" fill="#FB3159"/> <path d="m2901.4 4926.9h46.85c67.123-22.233 133.16-49.416 197.55-81.191h-67.494c-57.54 31.71-116.7 58.919-176.91 81.191z" fill="#2D5317"/> <path d="m2844.5 4926.9h52.202c59.519-22.276 117.98-49.489 174.83-81.191h-75.204c-49.219 31.604-100 58.854-151.83 81.191z" fill="#F9DD53"/> <path d="m2716.4 4926.9h60.539c41.89-22.456 82.714-49.762 122.07-81.191h-87.215c-30.537 31.21-62.403 58.563-95.389 81.191z" fill="#E13741"/> <path d="m2782.6 4926.9h56.788c51.066-22.344 101.09-49.598 149.55-81.191h-81.81c-40.166 31.447-81.813 58.748-124.52 81.191z" fill="#F561B3"/> <path d="m2952.5 4926.9h40.81c73.762-22.205 146.41-49.365 217.37-81.191h-58.793c-64.998 31.781-131.65 58.961-199.39 81.191z" fill="#47510D"/> <path d="m2647.1 4926.9h63.403c32.119-22.65 63.11-50.006 92.792-81.191h-91.341c-20.541 30.879-42.105 58.239-64.854 81.191z" fill="#5D63FB"/> <path d="m3339.4 4845.7h-28.084c-81.167 31.886-164.08 59.02-248.17 81.191h19.494c86.971-22.164 172.75-49.292 256.76-81.191z" fill="#8593D5"/> <path d="m2996.8 4926.9h34.171c79.337-22.186 157.53-49.331 234-81.191h-49.229c-71.481 31.83-144.66 58.989-218.94 81.191z" fill="#6DB185"/> <path d="m3608.6 4723.9h-37.091c-76.937 42.105-156.16 79.727-237.13 112.58h28.883c83.739-32.84 165.7-70.454 245.34-112.58z" fill="#C98531"/> <path d="m3033.9 4926.9h27.031c83.762-22.173 166.35-49.307 247.2-81.191h-38.942c-76.897 31.863-155.52 59.007-235.28 81.191z" fill="#A1393D"/> <path d="m2503.1 4926.9h66.309c10.992-23.498 21.039-50.712 30.608-81.191h-95.527c-0.4321 30.313-0.8842 57.389-1.3896 81.191z" fill="#07C5E7"/> <path d="m2103.2 4926.9h52.202c-51.829-22.337-102.61-49.587-151.83-81.191h-75.204c56.851 31.702 115.31 58.915 174.83 81.191z" fill="#9BE5CD"/> <path d="m2160.6 4926.9h56.787c-42.711-22.444-84.358-49.745-124.52-81.191h-81.81c48.462 31.593 98.481 58.847 149.55 81.191z" fill="#FB8FE3"/> <path d="m2051.6 4926.9h46.85c-60.213-22.272-119.37-49.482-176.91-81.191h-67.494c64.388 31.776 130.43 58.958 197.55 81.191z" fill="#E1E5ED"/> <path d="m2222.9 4926.9h60.54c-32.987-22.628-64.852-49.981-95.389-81.191h-87.216c39.351 31.43 80.175 58.735 122.07 81.191z" fill="#DFE11F"/> <path d="m2575.7 4926.9h65.335c21.838-22.99 42.49-50.345 62.156-81.191h-94.124c-10.441 30.507-21.408 57.739-33.367 81.191z" fill="#3D9B95"/> <path d="m2006.7 4926.9h40.81c-67.738-22.23-134.39-49.411-199.39-81.191h-58.793c70.96 31.826 143.61 58.987 217.37 81.191z" fill="#D5C7ED"/> <path d="m2430.5 4926.9h66.309c-0.5054-23.802-0.9575-50.878-1.3894-81.191h-95.527c9.5691 30.48 19.616 57.693 30.608 81.191z" fill="#F16305"/> <path d="m2289.4 4926.9h63.402c-22.749-22.953-44.313-50.312-64.854-81.191h-91.34c29.682 31.186 60.673 58.542 92.792 81.191z" fill="#314507"/> <path d="m2358.9 4926.9h65.335c-11.959-23.453-22.926-50.684-33.366-81.191h-94.125c19.666 30.846 40.318 58.202 62.156 81.191z" fill="#7BBD1F"/> </svg>